<svg width="32" height="33" viewBox="0 0 32 33" fill="none" xmlns="http://www.w3.org/2000/svg">
<path d="M24.0004 24.5142C24.5308 24.5142 25.0395 24.3034 25.4146 23.9284C25.7896 23.5533 26.0004 23.0446 26.0004 22.5142V17.6302C26.0004 17.0997 25.7896 16.591 25.4146 16.2159C25.0395 15.8409 24.5308 15.6302 24.0004 15.6302H21.2244C21.2244 14.9275 21.2657 14.2248 21.3484 13.5222C21.4724 12.7782 21.679 12.1168 21.9684 11.5382C22.2577 10.9595 22.6304 10.5042 23.0864 10.1722C23.5397 9.80016 24.1184 9.61416 24.8224 9.61416V6.51416C23.665 6.51416 22.6517 6.76216 21.7824 7.25816C20.919 7.74791 20.1773 8.42607 19.6124 9.24216C19.0436 10.1405 18.6248 11.1253 18.3724 12.1582C18.1171 13.2976 17.9923 14.4625 18.0004 15.6302V22.5142C18.0004 23.0446 18.2111 23.5533 18.5862 23.9284C18.9612 24.3034 19.4699 24.5142 20.0004 24.5142H24.0004ZM12.0004 24.5142C12.5308 24.5142 13.0395 24.3034 13.4146 23.9284C13.7897 23.5533 14.0004 23.0446 14.0004 22.5142V17.6302C14.0004 17.0997 13.7897 16.591 13.4146 16.2159C13.0395 15.8409 12.5308 15.6302 12.0004 15.6302H9.22436C9.22436 14.9275 9.2657 14.2248 9.34836 13.5222C9.4737 12.7782 9.68037 12.1168 9.96836 11.5382C10.2577 10.9595 10.6304 10.5042 11.0864 10.1722C11.5397 9.80016 12.1184 9.61416 12.8224 9.61416V6.51416C11.665 6.51416 10.6517 6.76216 9.78236 7.25816C8.91905 7.74791 8.17731 8.42607 7.61236 9.24216C7.04359 10.1405 6.62478 11.1253 6.37236 12.1582C6.11713 13.2976 5.99233 14.4625 6.00036 15.6302V22.5142C6.00036 23.0446 6.21108 23.5533 6.58615 23.9284C6.96122 24.3034 7.46993 24.5142 8.00036 24.5142H12.0004Z" fill="#0AB7A8"/>
</svg>
