<svg width="154" height="149" viewBox="0 0 154 149" fill="none" xmlns="http://www.w3.org/2000/svg">
<g clip-path="url(#clip0_1196_6935)">
<path opacity="0.95" d="M26.8223 122.999V149L49.3196 135.988V110.009L26.8223 122.999Z" fill="#E84D4D" fill-opacity="0.6"/>
<path opacity="0.5" d="M23.2063 122.999V149L0.708984 135.988V110.009L23.2063 122.999Z" fill="#E84D4D" fill-opacity="0.6"/>
<path opacity="0.3" d="M26.8223 94.9216V118.825L47.5341 106.862L26.8223 94.9216Z" fill="#E84D4D" fill-opacity="0.6"/>
<path opacity="0.75" d="M23.2059 94.9216L2.49414 106.862L23.2059 118.825V94.9216Z" fill="#E84D4D" fill-opacity="0.6"/>
<path opacity="0.95" d="M23.2063 88.5385V62.5371L0.708984 75.5489V101.528L23.2063 88.5385Z" fill="#E84D4D" fill-opacity="0.6"/>
<path opacity="0.95" d="M26.8223 28.0772V54.0785L49.3196 41.0667V15.0876L26.8223 28.0772Z" fill="#E84D4D" fill-opacity="0.6"/>
<path opacity="0.5" d="M23.2063 28.0772V54.0785L0.708984 41.0667V15.0876L23.2063 28.0772Z" fill="#E84D4D" fill-opacity="0.6"/>
<path opacity="0.3" d="M26.8223 0V23.9034L47.5341 11.9405L26.8223 0Z" fill="#E84D4D" fill-opacity="0.6"/>
<path opacity="0.75" d="M23.2059 0L2.49414 11.9405L23.2059 23.9034V0Z" fill="#E84D4D" fill-opacity="0.6"/>
<path opacity="0.75" d="M2.49414 46.2444V70.1701L23.2059 58.2072L2.49414 46.2444Z" fill="#E84D4D" fill-opacity="0.6"/>
<path opacity="0.15" d="M47.5341 46.2444L26.8223 58.2072L47.5341 70.1701V46.2444Z" fill="#E84D4D" fill-opacity="0.6"/>
<path opacity="0.5" d="M26.8223 88.5385V62.5371L49.3196 75.5489V101.528L26.8223 88.5385Z" fill="#E84D4D" fill-opacity="0.6"/>
<path opacity="0.95" d="M79.2715 122.999V149L101.769 135.988V110.009L79.2715 122.999Z" fill="#E84D4D" fill-opacity="0.6"/>
<path opacity="0.5" d="M75.6555 122.999V149L53.1582 135.988V110.009L75.6555 122.999Z" fill="#E84D4D" fill-opacity="0.6"/>
<path opacity="0.3" d="M79.2715 94.9216V118.825L99.9833 106.862L79.2715 94.9216Z" fill="#E84D4D" fill-opacity="0.6"/>
<path opacity="0.75" d="M75.6552 94.9216L54.9434 106.862L75.6552 118.825V94.9216Z" fill="#E84D4D" fill-opacity="0.6"/>
<path opacity="0.95" d="M75.6555 88.5385V62.5371L53.1582 75.5489V101.528L75.6555 88.5385Z" fill="#E84D4D" fill-opacity="0.6"/>
<path opacity="0.95" d="M79.2715 28.0772V54.0785L101.769 41.0667V15.0876L79.2715 28.0772Z" fill="#E84D4D" fill-opacity="0.6"/>
<path opacity="0.5" d="M75.6555 28.0772V54.0785L53.1582 41.0667V15.0876L75.6555 28.0772Z" fill="#E84D4D" fill-opacity="0.6"/>
<path opacity="0.3" d="M79.2715 0V23.9034L99.9833 11.9405L79.2715 0Z" fill="#E84D4D" fill-opacity="0.6"/>
<path opacity="0.75" d="M75.6552 0L54.9434 11.9405L75.6552 23.9034V0Z" fill="#E84D4D" fill-opacity="0.6"/>
<path opacity="0.75" d="M54.9434 46.2444V70.1701L75.6552 58.2072L54.9434 46.2444Z" fill="#E84D4D" fill-opacity="0.6"/>
<path opacity="0.15" d="M99.9833 46.2444L79.2715 58.2072L99.9833 70.1701V46.2444Z" fill="#E84D4D" fill-opacity="0.6"/>
<path opacity="0.5" d="M79.2715 88.5385V62.5371L101.769 75.5489V101.528L79.2715 88.5385Z" fill="#E84D4D" fill-opacity="0.6"/>
<path opacity="0.95" d="M130.961 122.999V149L153.48 135.988V110.009L130.961 122.999Z" fill="#E84D4D" fill-opacity="0.6"/>
<path opacity="0.5" d="M127.367 122.999V149L104.848 135.988V110.009L127.367 122.999Z" fill="#E84D4D" fill-opacity="0.6"/>
<path opacity="0.3" d="M130.961 94.9216V118.825L151.673 106.862L130.961 94.9216Z" fill="#E84D4D" fill-opacity="0.6"/>
<path opacity="0.75" d="M127.368 94.9216L106.656 106.862L127.368 118.825V94.9216Z" fill="#E84D4D" fill-opacity="0.6"/>
<path opacity="0.95" d="M127.367 88.5385V62.5371L104.848 75.5489V101.528L127.367 88.5385Z" fill="#E84D4D" fill-opacity="0.6"/>
<path opacity="0.95" d="M130.961 28.0772V54.0785L153.48 41.0667V15.0876L130.961 28.0772Z" fill="#E84D4D" fill-opacity="0.6"/>
<path opacity="0.5" d="M127.367 28.0772V54.0785L104.848 41.0667V15.0876L127.367 28.0772Z" fill="#E84D4D" fill-opacity="0.6"/>
<path opacity="0.3" d="M130.961 0V23.9034L151.673 11.9405L130.961 0Z" fill="#E84D4D" fill-opacity="0.6"/>
<path opacity="0.75" d="M127.368 0L106.656 11.9405L127.368 23.9034V0Z" fill="#E84D4D" fill-opacity="0.6"/>
<path opacity="0.75" d="M106.656 46.2444V70.1701L127.368 58.2072L106.656 46.2444Z" fill="#E84D4D" fill-opacity="0.6"/>
<path opacity="0.15" d="M151.673 46.2444L130.961 58.2072L151.673 70.1701V46.2444Z" fill="#E84D4D" fill-opacity="0.6"/>
<path opacity="0.5" d="M130.961 88.5385V62.5371L153.48 75.5489V101.528L130.961 88.5385Z" fill="#E84D4D" fill-opacity="0.6"/>
</g>
<defs>
<clipPath id="clip0_1196_6935">
<rect width="152.771" height="149" fill="white" transform="translate(0.708984)"/>
</clipPath>
</defs>
</svg>
