<svg width="63" height="25" viewBox="0 0 63 25" fill="none" xmlns="http://www.w3.org/2000/svg">
<g clip-path="url(#clip0_1751_581)">
<path d="M0.38535 24.3202L11.8291 12.5898C11.8643 12.5549 11.8862 12.5087 11.8909 12.4593C11.8956 12.4098 11.8827 12.3604 11.8547 12.3194C11.1588 11.3478 9.87465 11.1794 9.39882 10.5265C7.98919 8.5927 7.63151 7.49813 7.02576 7.56597C6.98351 7.57209 6.94457 7.59254 6.91568 7.62401L2.7818 11.8618C0.403717 14.2978 0.0618397 19.6671 2.97673e-06 24.1634C-0.000227684 24.2082 0.0129515 24.252 0.0378421 24.2892C0.0627327 24.3264 0.098194 24.3553 0.139656 24.3722C0.181118 24.389 0.22668 24.3931 0.27047 24.3838C0.314261 24.3745 0.354273 24.3524 0.38535 24.3202Z" fill="#017CEE"/>
<path d="M23.8064 24.0305L12.076 12.5859C12.041 12.5505 11.9947 12.5286 11.9452 12.5239C11.8957 12.5192 11.8461 12.5321 11.8051 12.5603C10.8336 13.2566 10.6651 14.5403 10.0122 15.0162C8.07853 16.4258 6.98408 16.7835 7.0518 17.3892C7.05792 17.4313 7.07849 17.47 7.10984 17.4988L11.3476 21.6327C13.7835 24.011 19.1528 24.3529 23.6493 24.4146C23.6938 24.4146 23.7373 24.4013 23.7742 24.3765C23.8112 24.3517 23.8399 24.3165 23.8567 24.2753C23.8736 24.2341 23.8778 24.1888 23.8688 24.1452C23.8599 24.1016 23.8381 24.0617 23.8064 24.0305Z" fill="#00AD46"/>
<path d="M11.3475 21.6339C10.0159 20.3348 9.39875 17.7648 11.951 12.4653C7.80202 14.3196 6.34818 16.7567 7.06316 17.4546L11.3475 21.6339Z" fill="#04D659"/>
<path d="M23.5162 0.610638L12.0728 12.341C12.0374 12.3758 12.0154 12.4221 12.0107 12.4715C12.006 12.521 12.0189 12.5705 12.0471 12.6114C12.7435 13.583 14.0269 13.7514 14.5031 14.4043C15.9127 16.3381 16.2707 17.4327 16.8761 17.3648C16.9184 17.3589 16.9573 17.3383 16.9861 17.3068L21.12 13.069C23.4983 10.633 23.8402 5.2637 23.9019 0.767373C23.9019 0.722645 23.8887 0.678916 23.8637 0.641792C23.8388 0.604668 23.8033 0.575839 23.7619 0.559001C23.7204 0.542163 23.6749 0.538082 23.6311 0.547282C23.5874 0.556482 23.5473 0.578543 23.5162 0.610638Z" fill="#00C7D4"/>
<path d="M21.1221 13.0688C19.8229 14.4003 17.253 15.0174 11.9531 12.4653C13.8072 16.6143 16.2445 18.0681 16.9423 17.3531L21.1221 13.0688Z" fill="#11E1EE"/>
<path d="M0.0952531 0.89988L11.8256 12.3432C11.8605 12.3785 11.9068 12.4005 11.9562 12.4052C12.0056 12.4099 12.0552 12.397 12.0961 12.3689C13.0676 11.6726 13.2361 10.3888 13.8889 9.91298C15.8227 8.50335 16.9173 8.14568 16.8495 7.53992C16.8433 7.49765 16.8228 7.45879 16.7914 7.42984L12.5536 3.29596C10.1176 0.91788 4.74831 0.576002 0.251988 0.514165C0.20715 0.513858 0.163252 0.527008 0.125968 0.551916C0.0886851 0.576825 0.0597316 0.612345 0.0428519 0.653885C0.0259723 0.695425 0.0219428 0.741073 0.0312845 0.784928C0.0406263 0.828782 0.0629096 0.868825 0.0952531 0.89988Z" fill="#E43921"/>
<path d="M12.5555 3.29639C13.8871 4.59557 14.5042 7.16553 11.9521 12.4654C16.101 10.6112 17.5548 8.17353 16.8399 7.47606L12.5555 3.29639Z" fill="#FF7557"/>
<path d="M2.78223 11.8622C4.08141 10.5306 6.65137 9.91347 11.9512 12.4656C10.097 8.31674 7.65986 6.8629 6.9619 7.57776L2.78223 11.8622Z" fill="#0CB6FF"/>
<path d="M11.952 12.9748C12.2346 12.9748 12.4636 12.7458 12.4636 12.4633C12.4636 12.1807 12.2346 11.9517 11.952 11.9517C11.6695 11.9517 11.4404 12.1807 11.4404 12.4633C11.4404 12.7458 11.6695 12.9748 11.952 12.9748Z" fill="#4A4848"/>
<path d="M27.0898 8.31061C27.066 8.30999 27.0433 8.30026 27.0265 8.28343C27.0096 8.26659 26.9999 8.24394 26.9992 8.22012C26.9984 8.20334 27 8.18653 27.0038 8.17016L28.1267 5.24131C28.136 5.21074 28.1555 5.18426 28.1818 5.16619C28.2081 5.14812 28.2399 5.13955 28.2717 5.14188H28.5794C28.6449 5.13722 28.7051 5.17861 28.7244 5.24131L29.8424 8.17028L29.8514 8.22012C29.8509 8.244 29.8412 8.26675 29.8243 8.28364C29.8074 8.30053 29.7847 8.31023 29.7608 8.31073H29.5302C29.5026 8.31245 29.4753 8.30438 29.4531 8.28796C29.4371 8.27274 29.4248 8.25411 29.417 8.23347L29.1682 7.59086H27.6833L27.4345 8.23347C27.4261 8.25495 27.4121 8.27377 27.3939 8.28796C27.3732 8.3038 27.3476 8.31183 27.3216 8.31061H27.0898ZM29.0365 7.20147L28.4255 5.59457L27.8145 7.20147H29.0365ZM30.3853 9.17045C30.371 9.17066 30.3569 9.16797 30.3437 9.16254C30.3305 9.15711 30.3185 9.14905 30.3085 9.13885C30.2993 9.12928 30.2922 9.11794 30.2875 9.10552C30.2828 9.0931 30.2807 9.07987 30.2813 9.06661V6.0622C30.2807 6.04895 30.2828 6.03571 30.2875 6.02329C30.2922 6.01087 30.2993 5.99953 30.3085 5.98996C30.3185 5.97976 30.3305 5.97171 30.3437 5.96628C30.3569 5.96085 30.371 5.95816 30.3853 5.95837H30.5935C30.6499 5.96082 30.6951 6.00588 30.6975 6.0622V6.26118C30.7824 6.14592 30.8948 6.05368 31.0244 5.99285C31.1539 5.93201 31.2967 5.9045 31.4396 5.91282C31.5733 5.90303 31.7073 5.92499 31.8309 5.97692C31.9545 6.02884 32.064 6.10926 32.1505 6.21159C32.3186 6.43358 32.4093 6.70456 32.4088 6.98302C32.4117 7.01608 32.4132 7.06739 32.4132 7.13694C32.4132 7.20649 32.4117 7.25775 32.4088 7.29073C32.4085 7.56905 32.3178 7.83975 32.1505 8.06216C32.0636 8.16402 31.9541 8.2441 31.8306 8.29599C31.7072 8.34787 31.5733 8.37012 31.4397 8.36094C31.2992 8.36753 31.1592 8.34013 31.0316 8.28106C30.9039 8.22199 30.7924 8.133 30.7065 8.02163V9.07188C30.7071 9.08514 30.7049 9.09838 30.7003 9.1108C30.6956 9.12322 30.6884 9.13456 30.6792 9.14412C30.6703 9.15456 30.6591 9.16284 30.6465 9.16833C30.6339 9.17383 30.6203 9.17639 30.6066 9.17583L30.3853 9.17045ZM31.3451 7.98906C31.4332 7.99681 31.5219 7.98266 31.6033 7.94789C31.6847 7.91311 31.7562 7.85878 31.8116 7.78971C31.918 7.6354 31.9747 7.45222 31.974 7.26477C31.9769 7.23473 31.9784 7.19106 31.9784 7.13375C31.9784 6.56339 31.767 6.2782 31.3442 6.2782C31.2548 6.27234 31.1653 6.28823 31.0834 6.3245C31.0014 6.36078 30.9295 6.41636 30.8738 6.48649C30.7694 6.6279 30.711 6.798 30.7065 6.97371L30.7016 7.14588L30.7065 7.32245C30.7096 7.49292 30.7702 7.65733 30.8785 7.78898C30.9354 7.85616 31.0071 7.90921 31.088 7.94393C31.1689 7.97866 31.2568 7.99411 31.3447 7.98906H31.3451ZM33.63 8.35445C33.4875 8.35579 33.3467 8.32485 33.2179 8.26396C33.0979 8.20952 32.9936 8.12571 32.9146 8.02028C32.8432 7.91809 32.8053 7.79632 32.8059 7.67167C32.8045 7.57687 32.826 7.48314 32.8684 7.39834C32.9108 7.31353 32.9729 7.24014 33.0495 7.18433C33.2467 7.04261 33.4777 6.95528 33.7193 6.9311L34.3937 6.83608V6.70494C34.3937 6.39718 34.2178 6.24331 33.8659 6.24331C33.7514 6.23858 33.6382 6.26859 33.5411 6.32939C33.4626 6.37771 33.3974 6.44468 33.3511 6.52433C33.3449 6.54699 33.3324 6.56739 33.3149 6.5831C33.3075 6.58965 33.2989 6.59466 33.2896 6.59781C33.2802 6.60097 33.2704 6.60221 33.2605 6.60147H33.0657C33.0524 6.60237 33.0391 6.60042 33.0266 6.59574C33.0141 6.59105 33.0027 6.58375 32.9933 6.57432C32.9839 6.56489 32.9766 6.55355 32.9719 6.54106C32.9672 6.52857 32.9653 6.51522 32.9662 6.50192C32.9759 6.41297 33.0104 6.32854 33.0657 6.25824C33.1452 6.15422 33.2494 6.07175 33.3689 6.01837C33.5259 5.94445 33.6981 5.90887 33.8715 5.91453C34.0033 5.90169 34.1364 5.9164 34.2622 5.95771C34.388 5.99903 34.5038 6.06605 34.6023 6.15453C34.7512 6.31371 34.831 6.52531 34.8244 6.74314V8.21008C34.8247 8.22441 34.8221 8.23865 34.8166 8.2519C34.8112 8.26515 34.803 8.27714 34.7927 8.2871C34.7832 8.29629 34.7718 8.30344 34.7594 8.30811C34.747 8.31278 34.7337 8.31488 34.7205 8.31428H34.5123C34.4983 8.31582 34.4841 8.3142 34.4707 8.30953C34.4574 8.30485 34.4453 8.29725 34.4352 8.28728C34.4252 8.27731 34.4176 8.26522 34.4128 8.25191C34.4081 8.23859 34.4064 8.22438 34.4079 8.21033V8.01588C34.3326 8.11957 34.2331 8.20324 34.118 8.25955C33.9654 8.33063 33.7978 8.36361 33.6296 8.35567L33.63 8.35445ZM33.725 8.01514C33.8138 8.01838 33.9023 8.00313 33.985 7.97036C34.0676 7.93758 34.1425 7.88799 34.205 7.82473C34.2718 7.7491 34.323 7.66096 34.3556 7.56541C34.3882 7.46987 34.4016 7.36881 34.3949 7.26808V7.14135L33.87 7.21849C33.6993 7.23424 33.534 7.28675 33.3855 7.37241C33.3371 7.39844 33.2966 7.43694 33.268 7.48391C33.2395 7.53089 33.224 7.58463 33.2232 7.63959C33.2213 7.69532 33.2342 7.75055 33.2604 7.79976C33.2866 7.84897 33.3253 7.89043 33.3726 7.92C33.4782 7.98539 33.6004 8.01886 33.7246 8.01637L33.725 8.01514ZM36.422 8.35445C36.2836 8.36225 36.145 8.34224 36.0144 8.29559C35.8838 8.24895 35.7638 8.17661 35.6616 8.08286C35.4697 7.87235 35.3659 7.59622 35.3717 7.31143L35.3673 7.13045L35.3717 6.94935C35.3659 6.66637 35.4698 6.39213 35.6616 6.18404C35.7631 6.08901 35.8829 6.01554 36.0135 5.96808C36.1442 5.92062 36.2832 5.90016 36.422 5.90792C36.6129 5.90222 36.8023 5.94263 36.9743 6.02571C37.1097 6.09083 37.2253 6.19088 37.3092 6.31555C37.38 6.41731 37.422 6.5362 37.4309 6.65988C37.4327 6.67323 37.4312 6.68684 37.4265 6.69945C37.4217 6.71207 37.4139 6.7233 37.4037 6.73212C37.3823 6.75042 37.3548 6.76011 37.3266 6.75931H37.1093C37.0852 6.76106 37.0612 6.75463 37.0411 6.74106C37.0207 6.72084 37.0052 6.69609 36.9961 6.66882C36.9599 6.54495 36.8835 6.43667 36.7789 6.3611C36.6735 6.29441 36.5503 6.26127 36.4257 6.26608C36.343 6.26242 36.2605 6.27625 36.1836 6.30668C36.1066 6.33711 36.037 6.38344 35.9791 6.44265C35.8584 6.59141 35.7956 6.77891 35.8024 6.97041L35.798 7.1329L35.8024 7.28669C35.7946 7.48034 35.8574 7.67024 35.9791 7.82106C36.0373 7.87948 36.1072 7.92499 36.1841 7.95466C36.261 7.98432 36.3434 7.99746 36.4257 7.99322C36.5497 7.99787 36.6724 7.96639 36.7789 7.90261C36.8829 7.82453 36.959 7.71506 36.9961 7.59037C37.0054 7.56316 37.0208 7.53845 37.0411 7.51812C37.0504 7.51001 37.0613 7.50383 37.073 7.49995C37.0847 7.49606 37.097 7.49453 37.1093 7.49547H37.3266C37.3409 7.49521 37.3551 7.49787 37.3684 7.50331C37.3817 7.50874 37.3937 7.51682 37.4037 7.52706C37.4139 7.53588 37.4217 7.54711 37.4265 7.55973C37.4312 7.57235 37.4327 7.58595 37.4309 7.5993C37.421 7.7226 37.379 7.84117 37.3092 7.94326C37.2253 8.06795 37.1096 8.16801 36.9742 8.2331C36.8028 8.31862 36.6131 8.36072 36.4217 8.35567L36.422 8.35445ZM38.0777 8.30914C38.0636 8.31066 38.0494 8.30902 38.0361 8.30433C38.0227 8.29965 38.0106 8.29203 38.0006 8.28205C37.9906 8.27207 37.983 8.25997 37.9782 8.24665C37.9735 8.23333 37.9719 8.21911 37.9733 8.20506V5.20078C37.9727 5.18752 37.9748 5.17428 37.9795 5.16186C37.9842 5.14944 37.9913 5.1381 38.0005 5.12853C38.0105 5.11825 38.0225 5.11012 38.0358 5.10464C38.0491 5.09917 38.0633 5.09646 38.0777 5.09669H38.3038C38.3311 5.09772 38.357 5.10901 38.3764 5.1283C38.3957 5.1476 38.4071 5.17348 38.4082 5.20078V6.25628C38.49 6.14945 38.5953 6.06279 38.7159 6.00294C38.8531 5.93828 39.0037 5.90722 39.1552 5.91233C39.2815 5.90524 39.4078 5.9268 39.5245 5.9754C39.6413 6.024 39.7456 6.09838 39.8295 6.19298C40.0002 6.3999 40.0871 6.66325 40.0732 6.9311V8.20739C40.0735 8.22175 40.0709 8.23601 40.0654 8.24929C40.0599 8.26256 40.0517 8.27456 40.0414 8.28453C40.0318 8.29372 40.0205 8.30086 40.008 8.30554C39.9956 8.31021 39.9824 8.31231 39.9691 8.31171H39.7431C39.7291 8.31317 39.7149 8.31149 39.7016 8.30678C39.6884 8.30207 39.6763 8.29446 39.6664 8.2845C39.6564 8.27454 39.6488 8.26248 39.6441 8.2492C39.6394 8.23593 39.6377 8.22177 39.6391 8.20775V6.95179C39.6504 6.77181 39.5939 6.59413 39.4808 6.45367C39.424 6.39313 39.3545 6.34589 39.2773 6.31535C39.2001 6.2848 39.1171 6.2717 39.0342 6.27698C38.9496 6.27317 38.865 6.28735 38.7862 6.31859C38.7074 6.34983 38.6361 6.39741 38.577 6.4582C38.459 6.59448 38.399 6.77149 38.4098 6.95143V8.20494C38.4101 8.21928 38.4075 8.23353 38.402 8.24681C38.3966 8.26009 38.3885 8.27209 38.3782 8.28208C38.3686 8.29127 38.3572 8.29842 38.3448 8.30309C38.3324 8.30776 38.3192 8.30986 38.3059 8.30926L38.0777 8.30914ZM41.6691 8.35445C41.5318 8.36089 41.3946 8.339 41.2661 8.29012C41.1376 8.24125 41.0205 8.16645 40.9222 8.07037C40.7284 7.85355 40.6206 7.57342 40.6189 7.28265L40.6143 7.12886L40.6189 6.97947C40.6246 6.69135 40.7338 6.41492 40.9266 6.20069C41.1346 6.00942 41.4086 5.90594 41.6911 5.91184C41.9737 5.91775 42.2431 6.0326 42.443 6.23241C42.6377 6.47539 42.736 6.78168 42.719 7.09261V7.16975C42.7193 7.18403 42.7166 7.19822 42.7112 7.21143C42.7057 7.22464 42.6976 7.23658 42.6874 7.24653C42.6778 7.25572 42.6665 7.26286 42.6541 7.26754C42.6416 7.27221 42.6284 7.27431 42.6151 7.27371H41.0488V7.31437C41.0527 7.49642 41.1146 7.67248 41.2253 7.81702C41.2778 7.88254 41.3447 7.93498 41.4209 7.9702C41.497 8.00541 41.5803 8.02243 41.6642 8.01992C41.7827 8.025 41.9003 7.99688 42.0036 7.93873C42.081 7.89347 42.1487 7.83348 42.203 7.76216C42.2186 7.73767 42.2386 7.71624 42.2619 7.69886C42.2861 7.68801 42.3126 7.68338 42.339 7.68539H42.5611C42.5856 7.68465 42.6098 7.69273 42.6289 7.70816C42.6472 7.72384 42.6574 7.74735 42.656 7.77147C42.6435 7.8639 42.5986 7.9489 42.5294 8.01147C42.4317 8.11639 42.3128 8.19943 42.1807 8.25514C42.0192 8.32463 41.8448 8.3589 41.6691 8.35567V8.35445ZM42.2891 6.96037V6.9469C42.2973 6.76227 42.2358 6.5813 42.1169 6.43984C42.0594 6.37704 41.9894 6.32689 41.9115 6.29259C41.8336 6.25828 41.7494 6.24056 41.6642 6.24056C41.5791 6.24056 41.4948 6.25828 41.4169 6.29259C41.339 6.32689 41.269 6.37704 41.2115 6.43984C41.0983 6.58392 41.0407 6.76388 41.0491 6.9469V6.96037H42.2891Z" fill="white"/>
<path d="M29.0353 7.2015V7.2364C29.0409 7.23638 29.0464 7.235 29.0514 7.23238C29.0564 7.22977 29.0606 7.22599 29.0638 7.22138C29.067 7.21676 29.0691 7.21144 29.0698 7.20587C29.0705 7.2003 29.0698 7.19465 29.0679 7.18938L29.0353 7.2015ZM28.4243 5.59461L28.4569 5.58236C28.4543 5.57586 28.4498 5.57027 28.444 5.56634C28.4382 5.56241 28.4314 5.56031 28.4244 5.56031C28.4174 5.56031 28.4106 5.56241 28.4048 5.56634C28.399 5.57027 28.3945 5.57586 28.392 5.58236L28.4243 5.59461ZM27.8133 7.2015L27.7808 7.18926C27.7788 7.19452 27.7782 7.20018 27.7789 7.20576C27.7795 7.21133 27.7816 7.21666 27.7847 7.22129C27.7879 7.22592 27.7922 7.22971 27.7972 7.23234C27.8021 7.23497 27.8076 7.23636 27.8133 7.2364V7.2015ZM27.089 8.27575C27.0814 8.27608 27.0738 8.27473 27.0668 8.27179C27.0598 8.26884 27.0535 8.26438 27.0484 8.25873L26.9989 8.30783C27.0103 8.31966 27.024 8.32906 27.0391 8.33548C27.0543 8.34189 27.0706 8.34519 27.087 8.34518L27.089 8.27575ZM27.0484 8.25873C27.0428 8.2536 27.0384 8.2473 27.0354 8.24028C27.0325 8.23327 27.0311 8.22569 27.0313 8.21808H26.962C26.962 8.23453 26.9653 8.25081 26.9717 8.26596C26.9781 8.28111 26.9875 8.29481 26.9993 8.30624L27.0484 8.25873ZM27.0313 8.21808C27.0305 8.2045 27.0315 8.19087 27.0342 8.17754L26.9681 8.1555C26.9629 8.1755 26.9607 8.19583 26.9615 8.21648L27.0313 8.21808ZM27.0334 8.18073L28.156 5.25187L28.0911 5.22714L26.9685 8.15612L27.0334 8.18073ZM28.1564 5.25114C28.1635 5.228 28.1777 5.20769 28.197 5.1931C28.2181 5.1798 28.2428 5.17327 28.2677 5.17436V5.10456C28.2287 5.10337 28.1903 5.11414 28.1576 5.13542C28.126 5.15813 28.1024 5.19028 28.0902 5.22726L28.1564 5.25114ZM28.2684 5.17436H28.5761V5.10456H28.2684V5.17436ZM28.5761 5.17436C28.6012 5.17319 28.6259 5.17973 28.6471 5.1931C28.6665 5.20769 28.6807 5.228 28.6878 5.25114L28.7532 5.22714C28.741 5.19016 28.7174 5.158 28.6858 5.1353C28.653 5.11399 28.6145 5.10326 28.5754 5.10456L28.5761 5.17436ZM28.6887 5.2515L29.8067 8.18036L29.8716 8.15563L28.7537 5.22665L28.6887 5.2515ZM29.8051 8.17473L29.8141 8.22457L29.8827 8.21208L29.8737 8.16212L29.8051 8.17473ZM29.8137 8.21808C29.814 8.22569 29.8126 8.23327 29.8096 8.24028C29.8066 8.2473 29.8022 8.2536 29.7966 8.25873L29.8457 8.30783C29.8575 8.2964 29.8669 8.2827 29.8733 8.26755C29.8797 8.2524 29.883 8.23612 29.883 8.21967L29.8137 8.21808ZM29.7966 8.25873C29.7915 8.26434 29.7852 8.26878 29.7782 8.27174C29.7712 8.2747 29.7636 8.27611 29.756 8.27587V8.34518C29.7892 8.34518 29.8211 8.33171 29.8442 8.30783L29.7966 8.25873ZM29.756 8.27587H29.5253V8.34518H29.756V8.27587ZM29.5253 8.27587C29.5059 8.27752 29.4866 8.27232 29.4706 8.26118L29.4259 8.31481C29.4544 8.33648 29.4896 8.34738 29.5253 8.34554V8.27587ZM29.4731 8.26314C29.4607 8.25193 29.4511 8.23807 29.4449 8.22261L29.3793 8.24452C29.3886 8.27024 29.4039 8.2935 29.424 8.31236L29.4731 8.26314ZM29.4447 8.22261L29.1957 7.5795L29.1308 7.60461L29.3796 8.24746L29.4447 8.22261ZM29.1633 7.55759H27.6786V7.62701H29.1633V7.55759ZM27.6461 7.57987L27.3968 8.22297L27.4617 8.2482L27.7107 7.60546L27.6461 7.57987ZM27.3963 8.2242C27.39 8.24018 27.3795 8.2542 27.366 8.26485L27.411 8.3175C27.434 8.29938 27.4517 8.27526 27.4621 8.24771L27.3963 8.2242ZM27.3663 8.26485C27.3519 8.27573 27.334 8.28092 27.316 8.27942V8.34885C27.3503 8.35008 27.3837 8.33918 27.4105 8.31799L27.3663 8.26485ZM27.316 8.27942H27.0849V8.34885H27.316V8.27942ZM29.0642 7.19256L28.4532 5.58567L28.3883 5.6104L28.9993 7.2173L29.0642 7.19256ZM28.3878 5.58567L27.7768 7.19256L27.8417 7.2173L28.4527 5.6104L28.3878 5.58567ZM27.8092 7.24008H29.0313V7.17065H27.8092V7.24008ZM30.6927 6.26367H30.6578C30.6577 6.27101 30.6601 6.27817 30.6644 6.28413C30.6687 6.29009 30.6747 6.29453 30.6817 6.29684C30.6887 6.29915 30.6962 6.2992 30.7032 6.29698C30.7102 6.29476 30.7163 6.29039 30.7207 6.28448L30.6927 6.26367ZM30.7016 8.02363L30.7291 8.00257C30.7247 7.99685 30.7186 7.99265 30.7116 7.99057C30.7047 7.98848 30.6973 7.9886 30.6904 7.99091C30.6836 7.99323 30.6776 7.99762 30.6733 8.00348C30.6691 8.00934 30.6668 8.01638 30.6667 8.02363H30.7016ZM30.3792 9.14134C30.3694 9.14161 30.3597 9.13984 30.3507 9.13612C30.3417 9.13241 30.3335 9.12685 30.3268 9.11979L30.2778 9.16901C30.3046 9.19583 30.3412 9.21052 30.3792 9.20954V9.14134ZM30.3268 9.11979C30.3208 9.11342 30.3162 9.10589 30.3133 9.09768C30.3104 9.08946 30.3092 9.08074 30.3098 9.07203H30.24C30.2386 9.10803 30.2522 9.14305 30.2773 9.16901L30.3268 9.11979ZM30.3098 9.07203V6.0675H30.24V9.07203H30.3098ZM30.3098 6.0675C30.3092 6.05875 30.3104 6.0501 30.3133 6.04184C30.3163 6.03358 30.3209 6.02601 30.3269 6.01963L30.2777 5.97065C30.2652 5.98341 30.2554 5.9986 30.249 6.01528C30.2425 6.03195 30.2396 6.04977 30.2403 6.06763L30.3098 6.0675ZM30.3269 6.01963C30.3336 6.01261 30.3418 6.00707 30.3508 6.00338C30.3598 5.99969 30.3695 5.99793 30.3792 5.9982V5.9284C30.3412 5.92742 30.3045 5.94212 30.2777 5.96881L30.3269 6.01963ZM30.3792 5.9982H30.5875V5.9284H30.3792V5.9982ZM30.5875 5.9982C30.5961 5.9976 30.6048 5.99906 30.6128 6.00244C30.6207 6.00582 30.6278 6.01104 30.6334 6.01767L30.686 5.97261C30.6739 5.95835 30.6587 5.947 30.6416 5.93942C30.6244 5.93183 30.6058 5.92819 30.5871 5.92877L30.5875 5.9982ZM30.6374 6.02171C30.6509 6.0331 30.658 6.05012 30.657 6.06763H30.7263C30.7269 6.04894 30.7232 6.03038 30.7156 6.0133C30.708 5.99622 30.6967 5.98105 30.6825 5.96893L30.6374 6.02171ZM30.657 6.06763V6.26648H30.7263V6.06763H30.657ZM30.7198 6.28718C30.8016 6.17634 30.9097 6.08772 31.0344 6.02937C31.1592 5.97103 31.2965 5.94482 31.434 5.95314V5.88371C31.2853 5.87517 31.1369 5.9039 31.0022 5.96728C30.8675 6.03067 30.7507 6.12669 30.6625 6.24665L30.7198 6.28718ZM31.434 5.95314C31.5622 5.94316 31.691 5.9637 31.8097 6.01308C31.9285 6.06246 32.0339 6.13927 32.1172 6.23722L32.1721 6.19424C32.0823 6.08782 31.9686 6.00411 31.8404 5.94994C31.7121 5.89576 31.5729 5.87265 31.434 5.88248V5.95314ZM32.1172 6.23722C32.2804 6.45283 32.3684 6.71597 32.3678 6.98636L32.4372 6.98354C32.4373 6.69824 32.3441 6.42072 32.1717 6.19338L32.1172 6.23722ZM32.3678 6.98832C32.3706 7.02003 32.3723 7.0695 32.3723 7.13942H32.4417C32.4417 7.06999 32.4417 7.01759 32.4368 6.98232L32.3678 6.98832ZM32.3723 7.13942C32.3723 7.20885 32.3723 7.25881 32.3678 7.2904L32.4368 7.29652C32.44 7.26163 32.4417 7.20885 32.4417 7.13942H32.3723ZM32.3678 7.29199C32.3676 7.56236 32.2797 7.82537 32.1172 8.0415L32.1717 8.08461C32.3432 7.85691 32.4363 7.57983 32.4372 7.29481L32.3678 7.29199ZM32.1172 8.04114C32.0335 8.13863 31.928 8.21511 31.8094 8.26445C31.6907 8.31379 31.5621 8.3346 31.434 8.32522V8.39477C31.5727 8.40375 31.7116 8.38023 31.8397 8.32609C31.9678 8.27195 32.0815 8.18868 32.1717 8.08289L32.1172 8.04114ZM31.434 8.32522C31.2988 8.33196 31.1641 8.30595 31.0411 8.24941C30.9182 8.19287 30.8107 8.10747 30.7279 8.00048L30.6728 8.04114C30.7619 8.15679 30.8776 8.24928 31.01 8.31075C31.1424 8.37222 31.2877 8.40087 31.4336 8.39428L31.434 8.32522ZM30.6658 8.02081V9.07118H30.7356V8.02081H30.6658ZM30.6658 9.07118C30.6664 9.07989 30.6652 9.08862 30.6622 9.09684C30.6593 9.10505 30.6547 9.11257 30.6487 9.11893L30.6979 9.16816C30.7231 9.14232 30.7366 9.10718 30.7353 9.07118H30.6658ZM30.6471 9.12101C30.6414 9.12762 30.6343 9.13283 30.6263 9.13623C30.6183 9.13963 30.6096 9.14113 30.6009 9.14061V9.2104C30.6389 9.21163 30.6753 9.19546 30.7 9.16657L30.6471 9.12101ZM30.6009 9.14061H30.3793V9.2104H30.6009V9.14061ZM31.3386 8.02852C31.4322 8.03628 31.5263 8.02085 31.6125 7.98361C31.6987 7.94636 31.7745 7.88844 31.833 7.81497L31.7771 7.77432C31.7249 7.83884 31.6576 7.88948 31.5812 7.92171C31.5048 7.95395 31.4215 7.96679 31.3389 7.9591L31.3386 8.02852ZM31.8327 7.81546C31.9435 7.65553 32.0029 7.46554 32.0029 7.27093L31.9333 7.26812C31.934 7.44871 31.8794 7.62519 31.7771 7.77395L31.8327 7.81546ZM32.0024 7.27301C32.0056 7.24085 32.0073 7.19591 32.0073 7.1382H31.9375C31.9375 7.19501 31.9375 7.23763 31.9329 7.26603L32.0024 7.27301ZM32.0073 7.1382C32.0234 6.90544 31.9655 6.67354 31.842 6.47563C31.7832 6.39922 31.7066 6.33844 31.6188 6.29864C31.531 6.25884 31.4348 6.24123 31.3386 6.24738V6.31681C31.5115 6.30456 31.679 6.37963 31.7851 6.51665C31.8997 6.70264 31.9528 6.91997 31.937 7.13783L32.0073 7.1382ZM31.3386 6.24787C31.2437 6.2419 31.1488 6.25897 31.062 6.29763C30.9752 6.33629 30.899 6.39538 30.84 6.46987L30.8952 6.51052C30.9478 6.44466 31.0156 6.39256 31.0927 6.35869C31.1699 6.32482 31.2541 6.31019 31.3382 6.31607L31.3386 6.24787ZM30.84 6.46987C30.731 6.61739 30.6701 6.79484 30.6655 6.97816L30.7353 6.98146C30.7395 6.81187 30.7962 6.64777 30.8976 6.51175L30.84 6.46987ZM30.6655 6.97901L30.6609 7.15118H30.7304L30.7349 6.97901H30.6655ZM30.6609 7.15289L30.6655 7.32934H30.7353L30.7309 7.15277L30.6609 7.15289ZM30.6655 7.32983C30.669 7.50784 30.7323 7.67947 30.8453 7.81705L30.8992 7.77273C30.7963 7.64644 30.7391 7.48906 30.7369 7.32616L30.6655 7.32983ZM30.8453 7.81705C30.9055 7.88804 30.9814 7.9441 31.0669 7.98086C31.1524 8.01761 31.2453 8.03405 31.3382 8.02889V7.95946C31.2555 7.96461 31.1728 7.95045 31.0965 7.9181C31.0203 7.88576 30.9526 7.83611 30.8989 7.7731L30.8453 7.81705ZM34.3973 8.0191H34.4322C34.4321 8.01178 34.4296 8.00471 34.4251 7.99888C34.4207 7.99305 34.4146 7.98877 34.4076 7.98663C34.4006 7.98449 34.3931 7.9846 34.3861 7.98696C34.3792 7.98931 34.3732 7.99379 34.3689 7.99975L34.3973 8.0191ZM34.388 7.1491H34.4229C34.4229 7.14403 34.4218 7.13902 34.4197 7.13442C34.4176 7.12982 34.4145 7.12574 34.4106 7.12247C34.4067 7.1192 34.4022 7.1168 34.3973 7.11546C34.3924 7.11411 34.3873 7.11385 34.3823 7.11469L34.388 7.1491ZM33.6231 8.3273C33.4858 8.32865 33.35 8.2988 33.226 8.23999L33.196 8.30293C33.3295 8.36599 33.4752 8.39808 33.6227 8.39673L33.6231 8.3273ZM33.226 8.23999C33.1112 8.18754 33.0114 8.10712 32.9358 8.00612L32.8797 8.04677C32.962 8.1571 33.0708 8.24494 33.196 8.3022L33.226 8.23999ZM32.9365 8.00734C32.8691 7.91102 32.8332 7.79615 32.8338 7.67857H32.764C32.7633 7.81022 32.8034 7.93886 32.8789 8.04677L32.9365 8.00734ZM32.8338 7.67857C32.8324 7.58877 32.8526 7.49995 32.8929 7.41965C32.9331 7.33935 32.9921 7.26993 33.0649 7.2173L33.0222 7.16257C32.941 7.22168 32.8752 7.29945 32.8303 7.38931C32.7855 7.47917 32.7628 7.5785 32.7644 7.67893L32.8338 7.67857ZM33.0649 7.21693C33.2572 7.07878 33.4825 6.99376 33.7181 6.97044L33.7083 6.9015C33.4605 6.92636 33.2237 7.01625 33.0219 7.16208L33.0649 7.21693ZM33.7181 6.97044L34.3924 6.87554L34.3827 6.80648L33.708 6.9015L33.7181 6.97044ZM34.4226 6.84101V6.70987H34.3531V6.84089L34.4226 6.84101ZM34.4226 6.70987C34.4274 6.64103 34.417 6.57198 34.392 6.50763C34.3671 6.44329 34.3283 6.38524 34.2783 6.33763C34.1579 6.24682 34.0087 6.20267 33.8582 6.21334V6.28314C33.9918 6.27245 34.1247 6.31037 34.2325 6.38991C34.2752 6.43093 34.3083 6.4809 34.3293 6.53623C34.3503 6.59155 34.3589 6.65086 34.3542 6.70987H34.4226ZM33.8582 6.21334C33.7364 6.20848 33.6159 6.24058 33.5128 6.30542L33.5532 6.3631C33.6448 6.30567 33.7517 6.27736 33.8598 6.28191L33.8582 6.21334ZM33.5135 6.30518C33.4296 6.35612 33.3598 6.42727 33.3105 6.51212L33.3713 6.54628C33.4151 6.47171 33.4765 6.40905 33.5501 6.36383L33.5135 6.30518ZM33.3105 6.51787C33.3061 6.53412 33.2974 6.54886 33.2853 6.56048L33.3287 6.61485C33.3514 6.59489 33.3679 6.56881 33.3762 6.53979L33.3105 6.51787ZM33.2829 6.56318C33.2745 6.56958 33.2638 6.57239 33.2533 6.57101V6.64044C33.2677 6.6412 33.282 6.63907 33.2955 6.6342C33.3091 6.62932 33.3215 6.62178 33.332 6.61203L33.2829 6.56318ZM33.2533 6.57101H33.0584V6.64044H33.2533V6.57101ZM33.0584 6.57101C33.0401 6.57116 33.0224 6.56448 33.0088 6.55228L32.9635 6.60505C32.9897 6.62808 33.0235 6.64057 33.0584 6.64044V6.57101ZM33.0124 6.55595C33.0001 6.54227 32.9933 6.52444 32.9935 6.50599H32.924C32.9238 6.54101 32.9363 6.57481 32.9593 6.60101L33.0124 6.55595ZM32.9935 6.50771C33.0029 6.42511 33.0352 6.34679 33.0868 6.28154L33.03 6.24089C32.9704 6.31677 32.9337 6.40804 32.924 6.50403L32.9935 6.50771ZM33.0868 6.28191C33.1628 6.18248 33.2626 6.10374 33.377 6.05293L33.3466 5.99048C33.2218 6.04641 33.1129 6.13266 33.03 6.24138L33.0868 6.28191ZM33.3775 6.05293C33.5296 5.98134 33.6966 5.94697 33.8647 5.95265V5.88322C33.6857 5.87751 33.508 5.91453 33.3462 5.99122L33.3775 6.05293ZM33.8647 5.95265C33.9913 5.94008 34.1192 5.95391 34.2403 5.99326C34.3613 6.03261 34.4729 6.09662 34.5679 6.18126L34.619 6.13412C34.5175 6.04235 34.398 5.97266 34.2682 5.92948C34.1383 5.88629 34.0009 5.87053 33.8647 5.88322V5.95265ZM34.5683 6.18163C34.711 6.33436 34.7874 6.53744 34.7806 6.74636H34.85C34.8567 6.51975 34.7735 6.29969 34.6186 6.13412L34.5683 6.18163ZM34.7806 6.74636V8.2133H34.85V6.74636H34.7806ZM34.7806 8.2133C34.7809 8.22304 34.7791 8.23272 34.7754 8.24172C34.7717 8.25073 34.7661 8.25886 34.7591 8.26559L34.8082 8.31481C34.8214 8.30148 34.8319 8.28561 34.8389 8.26814C34.8459 8.25068 34.8492 8.23198 34.8488 8.21318L34.7806 8.2133ZM34.7591 8.26559C34.7527 8.27158 34.7451 8.27619 34.7369 8.27914C34.7287 8.28209 34.7199 8.28331 34.7112 8.28273V8.35216C34.7473 8.35338 34.7822 8.33991 34.8082 8.31481L34.7591 8.26559ZM34.7112 8.28273H34.5029V8.35216H34.7111L34.7112 8.28273ZM34.5029 8.28273C34.4831 8.28336 34.4637 8.27669 34.4485 8.26399L34.4035 8.31677C34.4311 8.3404 34.4665 8.35314 34.5029 8.35252V8.28273ZM34.4526 8.26767C34.4395 8.25263 34.4327 8.23319 34.4335 8.2133H34.364C34.3633 8.24967 34.3758 8.28505 34.3994 8.31273L34.4526 8.26767ZM34.4335 8.2133V8.01873H34.364V8.2133H34.4335ZM34.3702 7.99889C34.2983 8.09828 34.203 8.17844 34.0928 8.23228L34.1249 8.29399C34.245 8.23485 34.3489 8.1472 34.4273 8.03869L34.3702 7.99889ZM34.0928 8.23228C33.9468 8.30144 33.7862 8.33433 33.6247 8.32816V8.39759C33.7974 8.40371 33.9691 8.36817 34.1253 8.29399L34.0928 8.23228ZM33.7197 8.05816C33.8132 8.0615 33.9064 8.0454 33.9933 8.01087C34.0803 7.97635 34.1591 7.92415 34.2248 7.85759L34.1749 7.80885C34.1156 7.86876 34.0446 7.91566 33.9662 7.94657C33.8878 7.97748 33.8039 7.99171 33.7197 7.98836V8.05816ZM34.2248 7.85759C34.2948 7.77869 34.3484 7.68674 34.3827 7.58702C34.417 7.48731 34.4312 7.3818 34.4245 7.27657H34.3551C34.3617 7.37285 34.3492 7.4695 34.3182 7.56092C34.2873 7.65234 34.2386 7.73673 34.1749 7.80922L34.2248 7.85759ZM34.4245 7.27657V7.14995H34.3551V7.27657H34.4245ZM34.384 7.1142L33.8589 7.19097L33.8691 7.26003L34.394 7.18326L34.384 7.1142ZM33.8589 7.19097C33.6832 7.20742 33.5131 7.26186 33.3604 7.35052L33.399 7.40857C33.5432 7.3258 33.7036 7.27525 33.8692 7.2604L33.8589 7.19097ZM33.3608 7.35016C33.3074 7.37922 33.2626 7.42199 33.2312 7.47407C33.1997 7.52614 33.1827 7.58565 33.1818 7.64648H33.2516C33.2525 7.59729 33.2666 7.54925 33.2925 7.50739C33.3183 7.46553 33.3549 7.4314 33.3985 7.40857L33.3608 7.35016ZM33.1818 7.64648C33.1799 7.70793 33.1941 7.7688 33.2231 7.82306C33.252 7.87732 33.2946 7.92307 33.3466 7.95579L33.3852 7.89824C33.3426 7.87181 33.3078 7.8346 33.2843 7.79039C33.2608 7.74618 33.2494 7.69653 33.2512 7.64648H33.1818ZM33.3475 7.95665C33.4591 8.02522 33.5883 8.06012 33.7193 8.05705V7.9875C33.6016 7.99055 33.4855 7.95937 33.3852 7.89775L33.3475 7.95665ZM36.4168 8.32032C36.2828 8.32821 36.1486 8.30915 36.022 8.26427C35.8955 8.21938 35.7793 8.14959 35.6802 8.05901L35.6315 8.10848C35.7369 8.20553 35.8606 8.28046 35.9954 8.32886C36.1302 8.37725 36.2734 8.39812 36.4164 8.39024L36.4168 8.32032ZM35.6807 8.05938C35.4954 7.85545 35.3953 7.58829 35.4009 7.31281L35.3315 7.31526C35.3265 7.608 35.4337 7.89155 35.6311 8.10775L35.6807 8.05938ZM35.4009 7.31318L35.3965 7.13208H35.3271L35.3315 7.31318H35.4009ZM35.3965 7.13367L35.4009 6.95269H35.3315L35.3271 7.13367H35.3965ZM35.4009 6.95305C35.3948 6.67891 35.4951 6.41305 35.6807 6.21126L35.6311 6.16216C35.4332 6.37639 35.3258 6.65895 35.3315 6.95061L35.4009 6.95305ZM35.6807 6.21126C35.779 6.11936 35.8949 6.0484 36.0214 6.0027C36.1479 5.957 36.2824 5.93751 36.4167 5.94542V5.87599C36.2732 5.86817 36.1297 5.88949 35.9948 5.93867C35.8598 5.98786 35.7363 6.06388 35.6315 6.16216L35.6807 6.21126ZM36.4167 5.94542C36.6019 5.93959 36.7858 5.97857 36.9527 6.05905L36.9847 5.99734C36.8079 5.91148 36.6129 5.86968 36.4164 5.8755L36.4167 5.94542ZM36.9527 6.05905C37.0827 6.12117 37.1936 6.21688 37.2742 6.33628L37.3331 6.29942C37.246 6.16945 37.1257 6.06515 36.9847 5.99734L36.9527 6.05905ZM37.2746 6.33714C37.3418 6.43314 37.3819 6.5453 37.3911 6.66199L37.4605 6.65832C37.451 6.5286 37.4069 6.4038 37.3327 6.29697L37.2746 6.33714ZM37.3911 6.66554C37.3922 6.67303 37.3914 6.68067 37.3888 6.68777C37.3862 6.69487 37.3818 6.70121 37.3762 6.7062L37.4216 6.75897C37.4365 6.74674 37.448 6.73093 37.4551 6.71303C37.4622 6.69513 37.4647 6.67571 37.4622 6.65661L37.3911 6.66554ZM37.3762 6.7062C37.3609 6.71893 37.3415 6.72559 37.3217 6.72493V6.79424C37.3583 6.79497 37.3938 6.78224 37.4216 6.75861L37.3762 6.7062ZM37.3217 6.72493H37.1046V6.79424H37.3217V6.72493ZM37.1046 6.72493C37.0884 6.7266 37.0721 6.72286 37.0583 6.71428L37.0148 6.76877C37.0409 6.78738 37.0725 6.79656 37.1046 6.79473V6.72493ZM37.0583 6.71428C37.0425 6.69756 37.0306 6.67764 37.0233 6.65587L36.9592 6.68269C36.9706 6.71538 36.9896 6.74489 37.0148 6.76877L37.0583 6.71428ZM37.0241 6.65746C36.9852 6.52651 36.9038 6.41225 36.7927 6.33273L36.755 6.39114C36.8531 6.46257 36.9245 6.5647 36.958 6.68134L37.0241 6.65746ZM36.7935 6.33273C36.6824 6.26197 36.5524 6.22669 36.4208 6.23159V6.30101C36.5385 6.29626 36.6548 6.32726 36.7545 6.38991L36.7935 6.33273ZM36.4208 6.23159C36.3332 6.22785 36.2457 6.24262 36.1641 6.27494C36.0826 6.30726 36.0087 6.35641 35.9474 6.41918L35.9978 6.46705C36.0525 6.41108 36.1186 6.36737 36.1915 6.33881C36.2644 6.31025 36.3426 6.29749 36.4208 6.30138V6.23159ZM35.9474 6.41918C35.8204 6.57457 35.7543 6.77086 35.7614 6.97142L35.8309 6.97375C35.8233 6.7901 35.8826 6.60993 35.9978 6.46669L35.9474 6.41918ZM35.7614 6.97167L35.757 7.13416H35.8264L35.8309 6.97167H35.7614ZM35.757 7.13661L35.7614 7.2904L35.8309 7.28844L35.8264 7.13452L35.757 7.13661ZM35.7614 7.29089C35.7538 7.49283 35.8199 7.69063 35.9474 7.84742L35.9978 7.79954C35.8821 7.65479 35.8228 7.47305 35.8309 7.28795L35.7614 7.29089ZM35.9474 7.84742C36.009 7.90952 36.083 7.95793 36.1646 7.9895C36.2462 8.02106 36.3335 8.03507 36.4208 8.03061V7.96081C36.3428 7.96511 36.2648 7.95286 36.1919 7.92485C36.119 7.89685 36.0528 7.85372 35.9978 7.79832L35.9474 7.84742ZM36.4208 8.03061C36.5515 8.03531 36.6807 8.00186 36.7927 7.93436L36.755 7.87583C36.6542 7.93593 36.5381 7.96542 36.4208 7.96069V8.03061ZM36.7935 7.93387C36.9038 7.85161 36.9847 7.73603 37.0241 7.60424L36.9584 7.5811C36.924 7.69867 36.8529 7.80211 36.7553 7.8762L36.7935 7.93387ZM37.0233 7.60632C37.0306 7.58452 37.0425 7.56457 37.0583 7.54779L37.0148 7.49342C36.9897 7.51746 36.9707 7.54708 36.9592 7.57987L37.0233 7.60632ZM37.0611 7.5451C37.0671 7.5402 37.0741 7.53656 37.0816 7.53437C37.089 7.53219 37.0968 7.5315 37.1046 7.53236V7.46293C37.0877 7.46195 37.0708 7.46436 37.0549 7.47002C37.039 7.47567 37.0244 7.48447 37.012 7.49587L37.0611 7.5451ZM37.1046 7.53236H37.3217V7.46293H37.1046V7.53236ZM37.3217 7.53236C37.3314 7.53209 37.3411 7.53387 37.3502 7.53758C37.3592 7.54129 37.3673 7.54685 37.3741 7.55391L37.4232 7.50481C37.4099 7.49155 37.394 7.48112 37.3766 7.47413C37.3591 7.46714 37.3405 7.46375 37.3217 7.46416V7.53236ZM37.3762 7.55563C37.3818 7.56059 37.3861 7.56689 37.3887 7.57394C37.3913 7.581 37.3922 7.58859 37.3911 7.59603L37.4602 7.60301C37.4626 7.58393 37.4601 7.56454 37.453 7.54666C37.4459 7.52878 37.4344 7.51299 37.4195 7.50077L37.3762 7.55563ZM37.3911 7.59971C37.3814 7.71716 37.3411 7.83002 37.2742 7.92701L37.3327 7.96436C37.4059 7.85722 37.45 7.73285 37.4605 7.6035L37.3911 7.59971ZM37.2742 7.92701C37.1936 8.04646 37.0827 8.14221 36.9527 8.20436L36.9847 8.26608C37.1257 8.19822 37.2459 8.09393 37.3331 7.96399L37.2742 7.92701ZM36.9522 8.20473C36.7855 8.28564 36.6016 8.32464 36.4164 8.31836V8.38779C36.6129 8.3944 36.8081 8.3526 36.9847 8.26608L36.9522 8.20473ZM38.4025 6.25228H38.368C38.3681 6.25947 38.3704 6.26647 38.3746 6.27231C38.3788 6.27815 38.3847 6.28256 38.3915 6.28492C38.3982 6.28728 38.4056 6.28748 38.4125 6.28549C38.4194 6.28351 38.4256 6.27943 38.4301 6.27383L38.4025 6.25228ZM38.0724 8.27416C38.0526 8.27479 38.0333 8.26812 38.018 8.25542L37.9725 8.3082C38.0002 8.33195 38.0356 8.34469 38.072 8.34395L38.0724 8.27416ZM38.0221 8.2591C38.0094 8.24388 38.0027 8.22453 38.0033 8.20473H37.9335C37.9328 8.2411 37.9453 8.27648 37.9689 8.30416L38.0221 8.2591ZM38.0033 8.20473V5.20032H37.9335V8.20473H38.0033ZM38.0033 5.20032C38.0028 5.19161 38.004 5.18288 38.007 5.17466C38.0099 5.16645 38.0145 5.15892 38.0205 5.15256L37.9713 5.10334C37.9588 5.11615 37.9491 5.13134 37.9427 5.14801C37.9362 5.16468 37.9333 5.18247 37.9339 5.20032H38.0033ZM38.0205 5.15256C38.0272 5.1455 38.0353 5.13992 38.0443 5.13619C38.0533 5.13246 38.063 5.13065 38.0728 5.13089V5.06146C38.054 5.06106 38.0353 5.06445 38.0179 5.07144C38.0004 5.07842 37.9846 5.08886 37.9713 5.10212L38.0205 5.15256ZM38.0728 5.13089H38.2989V5.06146H38.0728V5.13089ZM38.2989 5.13089C38.3076 5.13031 38.3163 5.13178 38.3242 5.13519C38.3322 5.13859 38.3393 5.14383 38.3449 5.15048L38.3975 5.10493C38.3854 5.09067 38.3702 5.07933 38.353 5.07174C38.3359 5.06415 38.3173 5.06051 38.2986 5.0611L38.2989 5.13089ZM38.3485 5.15416C38.3551 5.15973 38.3603 5.16678 38.3637 5.17473C38.3671 5.18269 38.3686 5.19133 38.368 5.19995H38.4378C38.4383 5.18127 38.4347 5.1627 38.4271 5.14562C38.4195 5.12854 38.4082 5.11338 38.394 5.10126L38.3485 5.15416ZM38.368 5.19995V6.25546H38.4378V5.19995H38.368ZM38.4301 6.27628C38.5087 6.17349 38.6098 6.09013 38.7257 6.03261L38.6952 5.97016C38.5697 6.03228 38.4602 6.12244 38.3752 6.23367L38.4301 6.27628ZM38.7264 6.03261C38.8587 5.97033 39.0039 5.94052 39.15 5.94567V5.87636C38.9929 5.87129 38.8369 5.90361 38.6948 5.97065L38.7264 6.03261ZM39.15 5.94567C39.2715 5.93834 39.3931 5.95868 39.5056 6.00518C39.6181 6.05167 39.7186 6.1231 39.7996 6.21407L39.8522 6.16877C39.7649 6.07038 39.6565 5.99295 39.5352 5.94226C39.4138 5.89157 39.2825 5.86892 39.1512 5.87599L39.15 5.94567ZM39.7996 6.21505C39.9648 6.41546 40.049 6.67052 40.0354 6.92991H40.1048C40.1184 6.65353 40.0281 6.38206 39.8515 6.16901L39.7996 6.21505ZM40.0354 6.92991V8.2062H40.1048V6.92991H40.0354ZM40.0354 8.2062C40.0357 8.21595 40.0339 8.22578 40.0302 8.23481C40.0265 8.24384 40.0209 8.25199 40.0138 8.25873L40.0631 8.30783C40.0898 8.28089 40.1043 8.24428 40.1036 8.20632L40.0354 8.2062ZM40.0138 8.25873C40.0075 8.26471 40 8.26931 39.9917 8.27226C39.9835 8.27521 39.9748 8.27644 39.9661 8.27587V8.34518C40.0021 8.3464 40.0371 8.33293 40.0631 8.30783L40.0138 8.25873ZM39.9661 8.27587H39.7398V8.34518H39.966L39.9661 8.27587ZM39.7398 8.27587C39.72 8.2765 39.7006 8.26984 39.6854 8.25714L39.64 8.30979C39.6677 8.33354 39.7031 8.34628 39.7394 8.34554L39.7398 8.27587ZM39.6896 8.26081C39.6769 8.24557 39.6702 8.22617 39.6709 8.20632H39.6011C39.6003 8.24269 39.6128 8.27809 39.6363 8.30587L39.6896 8.26081ZM39.6709 8.20632V6.95146H39.6011V8.20497L39.6709 8.20632ZM39.6709 6.95269C39.6824 6.76408 39.6227 6.57801 39.5036 6.4313L39.4515 6.47759C39.559 6.61151 39.6123 6.78087 39.6009 6.9522L39.6709 6.95269ZM39.504 6.43179C39.4437 6.36726 39.3699 6.3169 39.2878 6.28431C39.2057 6.25173 39.1175 6.23774 39.0293 6.24334V6.31277C39.1075 6.30721 39.1859 6.31912 39.2588 6.34763C39.3318 6.37614 39.3975 6.42053 39.4512 6.47759L39.504 6.43179ZM39.0293 6.24334C38.94 6.23967 38.8508 6.25487 38.7677 6.28795C38.6846 6.32103 38.6094 6.37125 38.547 6.43534L38.5973 6.48334C38.6533 6.42615 38.7207 6.38142 38.7952 6.35209C38.8696 6.32276 38.9494 6.30949 39.0293 6.31314V6.24334ZM38.547 6.43534C38.4224 6.57802 38.3588 6.76394 38.37 6.95305H38.4398C38.4288 6.78195 38.4856 6.6134 38.5977 6.48371L38.547 6.43534ZM38.37 6.95305V8.20681H38.4398V6.95146L38.37 6.95305ZM38.37 8.20681C38.3702 8.21654 38.3685 8.22621 38.3648 8.23522C38.3611 8.24422 38.3555 8.25236 38.3485 8.2591L38.3975 8.3082C38.4108 8.2949 38.4212 8.27907 38.4282 8.26165C38.4352 8.24423 38.4385 8.22557 38.4382 8.20681H38.37ZM38.3485 8.2591C38.3421 8.26511 38.3346 8.26973 38.3263 8.27268C38.3181 8.27563 38.3093 8.27684 38.3005 8.27624V8.34554C38.3367 8.34677 38.3717 8.3333 38.3976 8.3082L38.3485 8.2591ZM38.3005 8.27624H38.0745V8.34554H38.3005V8.27624ZM41.6647 8.3213C41.5319 8.32759 41.3992 8.30642 41.2749 8.25912C41.1506 8.21182 41.0374 8.13941 40.9424 8.0464L40.8929 8.09514C40.9943 8.19469 41.1152 8.27231 41.2479 8.32316C41.3806 8.37401 41.5223 8.39701 41.6643 8.39073L41.6647 8.3213ZM40.9427 8.04677C40.7549 7.8358 40.6504 7.56358 40.6489 7.2811L40.5794 7.28477C40.5818 7.58381 40.6931 7.87174 40.8924 8.09465L40.9427 8.04677ZM40.6492 7.28195L40.6448 7.12803H40.5754L40.5798 7.28195H40.6492ZM40.6448 7.13012L40.6492 6.98073L40.5794 6.97865L40.575 7.12803L40.6448 7.13012ZM40.6492 6.98195C40.6546 6.70202 40.7605 6.43336 40.9476 6.2251L40.8974 6.17722C40.6991 6.3973 40.5864 6.68125 40.5798 6.97742L40.6492 6.98195ZM40.9473 6.2251C41.0401 6.13152 41.1515 6.05837 41.2743 6.01034C41.397 5.96231 41.5285 5.94044 41.6602 5.94616V5.87673C41.5191 5.87109 41.3784 5.8949 41.2471 5.94663C41.1157 5.99837 40.9967 6.0769 40.8974 6.17722L40.9473 6.2251ZM41.6602 5.94616C41.8008 5.93786 41.9414 5.96137 42.0717 6.01494C42.2019 6.06852 42.3184 6.15077 42.4125 6.25559L42.4653 6.21003C42.3647 6.09764 42.2401 6.00932 42.1007 5.95162C41.9613 5.89392 41.8108 5.86833 41.6602 5.87673V5.94616ZM42.4129 6.25559C42.602 6.49217 42.6973 6.79021 42.6804 7.09265H42.7502C42.7675 6.77338 42.6663 6.45896 42.4661 6.20967L42.4129 6.25559ZM42.6804 7.09265V7.16979H42.7502V7.09265H42.6804ZM42.6804 7.16979C42.6807 7.17954 42.6789 7.18924 42.6752 7.19826C42.6716 7.20729 42.666 7.21544 42.659 7.2222L42.708 7.2713C42.7349 7.24436 42.7495 7.20775 42.7486 7.16979H42.6804ZM42.659 7.2222C42.6526 7.22821 42.645 7.23283 42.6368 7.23578C42.6285 7.23873 42.6197 7.23994 42.611 7.23934V7.30865C42.6471 7.30987 42.6821 7.2964 42.7081 7.2713L42.659 7.2222ZM42.611 7.23934H41.0447V7.30865H42.611V7.23934ZM41.0098 7.27424V7.31477H41.0796V7.27424H41.0098ZM41.0098 7.31477C41.0143 7.50401 41.0787 7.68696 41.1938 7.83726L41.2485 7.79428C41.1422 7.65544 41.083 7.48638 41.0793 7.31159L41.0098 7.31477ZM41.1941 7.83763C41.2497 7.90735 41.3208 7.9632 41.4016 8.00077C41.4825 8.03834 41.571 8.05661 41.6602 8.05412V7.98469C41.5814 7.98711 41.5031 7.97113 41.4316 7.93801C41.3601 7.90489 41.2972 7.85556 41.2481 7.79391L41.1941 7.83763ZM41.6602 8.05412C41.7853 8.05927 41.9094 8.02914 42.0183 7.96718L41.9817 7.90791C41.8839 7.96289 41.7727 7.98936 41.6606 7.98432L41.6602 8.05412ZM42.0183 7.96718C42.0994 7.91943 42.1704 7.85628 42.2273 7.7813L42.1705 7.74065C42.1188 7.80804 42.0546 7.86483 41.9813 7.90791L42.0183 7.96718ZM42.2265 7.78203C42.2368 7.76799 42.2478 7.75448 42.2596 7.7415C42.2628 7.73791 42.2663 7.73452 42.27 7.73134L42.2733 7.72889L42.2419 7.66681C42.2293 7.67411 42.2179 7.68341 42.2082 7.69436C42.1951 7.70906 42.1826 7.72438 42.1709 7.74028L42.2265 7.78203ZM42.2752 7.72767C42.2941 7.72032 42.3144 7.7175 42.3345 7.7191V7.64979C42.3018 7.6477 42.2691 7.65411 42.2396 7.6684L42.2752 7.72767ZM42.3345 7.7191H42.5566V7.64979H42.3345V7.7191ZM42.5566 7.7191C42.573 7.71828 42.5892 7.72351 42.602 7.73379L42.6467 7.68016C42.6213 7.65943 42.5894 7.64849 42.5566 7.6493V7.7191ZM42.602 7.73379C42.6126 7.74297 42.618 7.75644 42.6167 7.77028H42.6862C42.6867 7.75315 42.6833 7.73614 42.6762 7.72052C42.6692 7.7049 42.6587 7.6911 42.6455 7.68016L42.602 7.73379ZM42.6167 7.77028C42.6035 7.85399 42.5618 7.93056 42.4986 7.98701L42.5505 8.03379C42.6256 7.96488 42.6737 7.87146 42.6862 7.77028H42.6167ZM42.4986 7.9875C42.4042 8.08908 42.2893 8.16946 42.1616 8.22334L42.1909 8.28677C42.3276 8.22865 42.4504 8.14227 42.5513 8.0333L42.4986 7.9875ZM42.162 8.22297C42.0051 8.29019 41.8357 8.32316 41.6651 8.31971V8.38901C41.8456 8.39244 42.0249 8.35742 42.1909 8.28628L42.162 8.22297ZM42.3199 6.95991V6.94644H42.2505V6.95991H42.3199ZM42.3199 6.94644C42.3283 6.75332 42.2638 6.5641 42.1393 6.41624L42.0869 6.46265C42.1997 6.59791 42.2577 6.77061 42.2493 6.94657L42.3199 6.94644ZM42.1397 6.41869C42.0812 6.34918 42.0076 6.29398 41.9244 6.25733C41.8413 6.22067 41.7509 6.20353 41.6602 6.20722V6.27701C41.7407 6.27356 41.821 6.28861 41.8948 6.321C41.9686 6.35339 42.034 6.40227 42.086 6.46387L42.1397 6.41869ZM41.6602 6.20722C41.5695 6.20362 41.4792 6.22082 41.3961 6.25749C41.3131 6.29417 41.2396 6.34935 41.1811 6.41881L41.2343 6.46338C41.2863 6.4018 41.3517 6.35295 41.4255 6.32058C41.4994 6.28821 41.5796 6.27318 41.6602 6.27665V6.20722ZM41.1807 6.41881C41.0623 6.56859 41.0015 6.75582 41.0093 6.94657H41.0791C41.0709 6.77158 41.126 6.59947 41.2343 6.46179L41.1807 6.41881ZM41.0093 6.94657V6.96003H41.0791V6.94657H41.0093ZM41.0442 6.99481H42.2847V6.92538H41.0442V6.99481ZM26.1487 18.9429C26.0881 18.9415 26.0304 18.9167 25.9875 18.8739C25.9446 18.831 25.9199 18.7733 25.9185 18.7127C25.9165 18.6702 25.9203 18.6276 25.9299 18.5861L28.7824 11.1449C28.806 11.0672 28.8552 10.9999 28.9221 10.954C28.9889 10.908 29.0694 10.8862 29.1503 10.892H29.9322C30.0132 10.8862 30.0937 10.908 30.1606 10.954C30.2275 11 30.2768 11.0673 30.3004 11.145L33.1425 18.5861L33.1655 18.7127C33.1639 18.7732 33.1391 18.8308 33.0963 18.8737C33.0534 18.9165 32.9958 18.9413 32.9353 18.9429H32.3488C32.2788 18.9473 32.2095 18.9269 32.153 18.8853C32.1122 18.8469 32.0807 18.7996 32.0611 18.7472L31.4287 17.1139H27.6562L27.0237 18.7472C27.0023 18.8017 26.9665 18.8494 26.9201 18.8852C26.8676 18.9256 26.8024 18.9461 26.7362 18.9429H26.1487ZM31.0942 16.1253L29.5416 12.0425L27.9895 16.1247L31.0942 16.1253ZM34.4168 11.847C34.3811 11.8508 34.3451 11.8466 34.3112 11.8347C34.2774 11.8228 34.2466 11.8034 34.2213 11.7781C34.1959 11.7527 34.1765 11.722 34.1645 11.6882C34.1525 11.6544 34.1483 11.6183 34.1521 11.5826V10.9614C34.1502 10.8899 34.1748 10.8202 34.2211 10.7657C34.2464 10.7395 34.2769 10.7188 34.3105 10.7048C34.3442 10.6908 34.3804 10.684 34.4168 10.6846H35.1415C35.1778 10.6844 35.2137 10.6914 35.2473 10.7052C35.2809 10.7191 35.3114 10.7394 35.337 10.765C35.3627 10.7907 35.383 10.8212 35.3969 10.8547C35.4107 10.8883 35.4177 10.9243 35.4176 10.9606V11.5817C35.4188 11.6552 35.3893 11.726 35.3364 11.7771C35.2821 11.8234 35.2125 11.848 35.1411 11.8461L34.4168 11.847ZM34.509 18.9433C34.4733 18.947 34.4373 18.9428 34.4034 18.9308C34.3696 18.9189 34.3389 18.8995 34.3135 18.8741C34.2881 18.8488 34.2687 18.818 34.2568 18.7842C34.2448 18.7504 34.2405 18.7143 34.2443 18.6786V13.2269C34.241 13.1586 34.266 13.0922 34.3133 13.0429C34.3387 13.0168 34.3691 12.9961 34.4028 12.9821C34.4364 12.9681 34.4726 12.9612 34.509 12.9617H35.0608C35.1301 12.9644 35.1958 12.9931 35.2448 13.0421C35.2939 13.0911 35.3226 13.1568 35.3254 13.2261V18.6774C35.3266 18.751 35.2972 18.8219 35.2442 18.8731C35.195 18.9204 35.1285 18.9453 35.0603 18.942L34.509 18.9433ZM37.2945 18.9433C37.2588 18.947 37.2228 18.9428 37.189 18.9308C37.1552 18.9188 37.1245 18.8994 37.0992 18.8741C37.0738 18.8487 37.0545 18.818 37.0426 18.7842C37.0306 18.7504 37.0264 18.7143 37.0302 18.6786V13.2382C37.0284 13.1669 37.053 13.0973 37.0992 13.0429C37.1245 13.0167 37.155 12.9959 37.1886 12.982C37.2223 12.968 37.2585 12.9611 37.295 12.9617H37.8227C37.859 12.9616 37.895 12.9686 37.9286 12.9824C37.9622 12.9963 37.9927 13.0166 38.0183 13.0423C38.044 13.0679 38.0643 13.0984 38.0782 13.132C38.092 13.1656 38.099 13.2016 38.0989 13.2379V13.7437C38.2703 13.4788 38.5109 13.2658 38.7948 13.1279C39.0787 12.9901 39.3948 12.9326 39.7091 12.9617H40.1555C40.2247 12.9645 40.2904 12.9932 40.3394 13.0422C40.3884 13.0912 40.4171 13.1569 40.4199 13.2261V13.6975C40.4211 13.7323 40.4145 13.7669 40.4004 13.7988C40.3863 13.8306 40.3652 13.8588 40.3387 13.8813C40.3143 13.9047 40.2855 13.9229 40.2538 13.9348C40.2222 13.9467 40.1885 13.952 40.1548 13.9504H39.4645C39.285 13.9407 39.1053 13.9684 38.937 14.0318C38.7687 14.0952 38.6155 14.1929 38.4869 14.3186C38.3644 14.449 38.2696 14.6028 38.2083 14.7708C38.1469 14.9389 38.1203 15.1176 38.1301 15.2962V18.6774C38.1313 18.751 38.1019 18.8219 38.0489 18.8731C37.9944 18.9194 37.9247 18.944 37.8532 18.942L37.2945 18.9433ZM42.2615 18.9433C42.2259 18.947 42.1898 18.9427 42.156 18.9307C42.1223 18.9187 42.0916 18.8993 42.0662 18.874C42.0409 18.8486 42.0216 18.8179 42.0096 18.7841C41.9977 18.7503 41.9934 18.7143 41.9971 18.6786V13.8822H41.0195C40.9839 13.886 40.9479 13.8817 40.9141 13.8697C40.8803 13.8578 40.8496 13.8384 40.8243 13.8131C40.799 13.7877 40.7796 13.7571 40.7677 13.7233C40.7557 13.6895 40.7515 13.6535 40.7553 13.6178V13.2269C40.752 13.1586 40.7769 13.0922 40.8242 13.0429C40.8495 13.0168 40.8798 12.996 40.9134 12.9821C40.947 12.9681 40.9831 12.9612 41.0195 12.9617H41.9971V12.3866C41.9971 11.0831 42.6565 10.4315 43.9752 10.4317H44.619C44.6883 10.4344 44.7541 10.4631 44.8031 10.5121C44.8522 10.5611 44.881 10.6268 44.8838 10.6961V11.0871C44.8843 11.1234 44.8774 11.1595 44.8634 11.1931C44.8494 11.2266 44.8287 11.257 44.8026 11.2822C44.7533 11.3295 44.6869 11.3545 44.6187 11.3513H43.9978C43.8638 11.3367 43.7283 11.3542 43.6023 11.4022C43.4763 11.4502 43.3635 11.5274 43.2732 11.6274C43.1168 11.8696 43.0441 12.1564 43.0662 12.4438V12.9615H45.5273V10.6967C45.5242 10.6286 45.549 10.562 45.5963 10.5128C45.6216 10.4866 45.6521 10.4659 45.6857 10.4519C45.7194 10.438 45.7555 10.431 45.792 10.4316H46.3197C46.389 10.4342 46.4548 10.4629 46.5039 10.5119C46.553 10.5609 46.5818 10.6266 46.5846 10.696V18.6774C46.5858 18.751 46.5564 18.8219 46.5033 18.8731C46.4539 18.9204 46.3873 18.9453 46.319 18.942H45.7912C45.7555 18.9459 45.7194 18.9417 45.6856 18.9297C45.6517 18.9178 45.621 18.8984 45.5956 18.8731C45.5702 18.8477 45.5508 18.8169 45.5388 18.7831C45.5269 18.7492 45.5227 18.7131 45.5265 18.6774V13.8822H43.0653V18.6782C43.0659 18.7146 43.059 18.7508 43.045 18.7844C43.031 18.8181 43.0103 18.8485 42.9841 18.8738C42.9347 18.9212 42.8681 18.9461 42.7998 18.9429L42.2615 18.9433ZM50.7467 19.0582C50.3876 19.08 50.0278 19.028 49.6896 18.9053C49.3513 18.7826 49.0418 18.5918 48.7802 18.3449C48.3034 17.8283 48.0403 17.1502 48.044 16.4473L48.0323 15.9527L48.044 15.4582C48.0419 14.7569 48.3095 14.0816 48.7915 13.572C49.9158 12.6059 51.5772 12.6059 52.7016 13.572C53.1834 14.0816 53.451 14.7569 53.4491 15.4582C53.4566 15.5424 53.4604 15.7072 53.4604 15.9527C53.4604 16.1982 53.4566 16.363 53.4491 16.4473C53.4524 17.1522 53.1849 17.8316 52.7016 18.3449C52.4423 18.5923 52.1346 18.7835 51.7978 18.9061C51.461 19.0288 51.1025 19.0805 50.7448 19.0577L50.7467 19.0582ZM50.7467 18.1727C50.9583 18.1834 51.1696 18.1478 51.366 18.0684C51.5623 17.9889 51.739 17.8676 51.8835 17.7128C52.1912 17.3416 52.3545 16.8719 52.3436 16.39C52.3511 16.3135 52.3549 16.1679 52.3549 15.9532C52.3549 15.7385 52.3511 15.5929 52.3436 15.5163C52.3545 15.0344 52.1911 14.5647 51.8835 14.1936C51.739 14.0388 51.5623 13.9174 51.366 13.8379C51.1696 13.7585 50.9583 13.7228 50.7467 13.7335C50.5332 13.7233 50.32 13.759 50.1216 13.8384C49.9231 13.9178 49.7441 14.0389 49.5966 14.1936C49.2903 14.5647 49.1314 15.0355 49.15 15.5163L49.1386 15.9532L49.15 16.39C49.1314 16.8708 49.2903 17.3416 49.5966 17.7128C49.7439 17.8671 49.9227 17.988 50.1207 18.0673C50.3188 18.1466 50.5316 18.1824 50.7448 18.1723L50.7467 18.1727ZM56.3313 18.9441C56.2488 18.9495 56.1672 18.925 56.1014 18.8751C56.0384 18.8145 55.991 18.7395 55.9634 18.6566L54.3301 13.3203L54.3073 13.2054C54.3063 13.1734 54.312 13.1416 54.3238 13.1119C54.3357 13.0822 54.3536 13.0553 54.3764 13.0328C54.4235 12.9894 54.4849 12.9648 54.549 12.9638H55.0547C55.0885 12.9622 55.1222 12.9675 55.1538 12.9794C55.1854 12.9912 55.2143 13.0094 55.2386 13.0328C55.2858 13.0629 55.3222 13.1073 55.3422 13.1595L56.6191 17.4951L57.9876 13.2054C58.004 13.1416 58.0403 13.0847 58.0912 13.0429C58.1202 13.0152 58.1545 12.9937 58.1921 12.9798C58.2296 12.9658 58.2696 12.9597 58.3097 12.9617H58.7006C58.7407 12.9596 58.7808 12.9657 58.8185 12.9797C58.8561 12.9937 58.8905 13.0152 58.9195 13.0429C58.9704 13.0846 59.0066 13.1416 59.0229 13.2054L60.3915 17.4951L61.6681 13.1595C61.6824 13.1103 61.7106 13.0664 61.7493 13.0328C61.8038 12.9865 61.8734 12.9619 61.9449 12.9638H62.4625C62.524 12.9631 62.5828 12.9882 62.625 13.0328C62.6708 13.0783 62.6958 13.1408 62.694 13.2054L62.6708 13.3203L61.0493 18.6566C61.0217 18.7396 60.9743 18.8145 60.9112 18.8751C60.8408 18.9264 60.7544 18.9509 60.6675 18.9441H60.2211C60.1332 18.9532 60.0451 18.9285 59.9746 18.8752C59.9042 18.8218 59.8566 18.7437 59.8415 18.6566L58.5073 14.5395L57.1732 18.6566C57.1523 18.7429 57.1016 18.819 57.0301 18.8716C56.9586 18.9242 56.8708 18.9499 56.7822 18.9441H56.3313Z" fill="white"/>
</g>
<defs>
<clipPath id="clip0_1751_581">
<rect width="62.6939" height="24" fill="white" transform="translate(0 0.51416)"/>
</clipPath>
</defs>
</svg>
