<svg width="140" height="30" viewBox="0 0 140 30" fill="none" xmlns="http://www.w3.org/2000/svg">
<g clip-path="url(#clip0_1905_901)">
<path d="M40.7047 22.7994C38.2658 22.7994 36.2471 21.993 34.6495 20.3797C33.0518 18.7667 32.2529 16.7561 32.2529 14.3478C32.2529 11.9396 33.0518 9.92898 34.6495 8.31585C36.2471 6.70271 38.2658 5.89612 40.7047 5.89612C42.1713 5.89612 43.5296 6.24354 44.7799 6.93816C46.0302 7.63281 47.0106 8.56668 47.7206 9.74002L44.1316 11.8008C43.823 11.2296 43.3637 10.778 42.754 10.4461C42.144 10.1143 41.4609 9.9484 40.7047 9.9484C39.4078 9.9484 38.3623 10.3536 37.5671 11.1641C36.772 11.9744 36.3747 13.0357 36.3747 14.3478C36.3747 15.66 36.772 16.7212 37.5671 17.5316C38.3623 18.3421 39.4078 18.7473 40.7047 18.7473C41.4609 18.7473 42.144 18.5813 42.754 18.2494C43.3637 17.9175 43.823 17.4584 44.1316 16.8717L47.7206 18.9557C47.0106 20.1444 46.0344 21.0822 44.7913 21.7691C43.5489 22.4559 42.1864 22.7994 40.7047 22.7994ZM56.3113 10.5504C57.5616 10.5504 58.5844 10.9788 59.3796 11.8354C60.1744 12.6922 60.5716 13.9233 60.5716 15.5288V22.4522H56.7282V16.0149C56.7282 15.413 56.5699 14.9576 56.2533 14.6488C55.9368 14.3401 55.5161 14.1857 54.9916 14.1857C54.3892 14.1857 53.9223 14.3672 53.5906 14.7299C53.2585 15.0927 53.0927 15.6137 53.0927 16.2928V22.4522H49.2489V6.24354H53.0927V12.0323C53.7871 11.0443 54.8602 10.5504 56.3113 10.5504ZM66.4996 13.028C66.7158 12.2715 67.1478 11.6851 67.7964 11.2682C68.4447 10.8514 69.1702 10.643 69.973 10.643V14.9035C69.093 14.7647 68.294 14.9267 67.5765 15.3898C66.8585 15.8529 66.4996 16.6094 66.4996 17.6591V22.4522H62.6558V10.8746H66.4996V13.028ZM76.7575 22.7763C75.044 22.7763 73.5851 22.1859 72.3809 21.005C71.1768 19.8241 70.5747 18.3769 70.5747 16.6634C70.5747 14.9499 71.1768 13.5027 72.3809 12.3218C73.5851 11.1409 75.044 10.5504 76.7575 10.5504C78.4861 10.5504 79.9489 11.1409 81.1454 12.3218C82.3416 13.5027 82.9399 14.9499 82.9399 16.6634C82.9399 18.3769 82.3416 19.8241 81.1454 21.005C79.9489 22.1859 78.4861 22.7763 76.7575 22.7763ZM76.7575 19.0715C77.4365 19.0715 77.9961 18.8476 78.4361 18.4001C78.8761 17.9523 79.0961 17.3735 79.0961 16.6634C79.0961 15.9533 78.8761 15.3743 78.4361 14.9267C77.9961 14.4791 77.4365 14.2552 76.7575 14.2552C76.0937 14.2552 75.5416 14.4791 75.1016 14.9267C74.662 15.3743 74.4416 15.9533 74.4416 16.6634C74.4416 17.3735 74.662 17.9523 75.1016 18.4001C75.5416 18.8476 76.0937 19.0715 76.7575 19.0715ZM97.9213 10.5504C99.2644 10.5504 100.325 10.9788 101.105 11.8354C101.885 12.6922 102.274 13.8692 102.274 15.3666V22.4522H98.4075V15.8066C98.4075 14.726 97.9289 14.1857 96.972 14.1857C96.4471 14.1857 96.0496 14.3595 95.7792 14.7067C95.5092 15.054 95.374 15.5288 95.374 16.1308V22.4522H91.5302V15.8066C91.5302 14.726 91.044 14.1857 90.0716 14.1857C89.5468 14.1857 89.1492 14.3595 88.8789 14.7067C88.6089 15.054 88.4737 15.5288 88.4737 16.1308V22.4522H84.6302V10.8746H88.4737V11.9628C89.184 11.0213 90.2258 10.5504 91.5999 10.5504C92.9275 10.5504 93.9154 11.0443 94.5637 12.0323C95.3665 11.0443 96.4854 10.5504 97.9213 10.5504ZM107.762 18.0758C108.148 19.0175 109.013 19.4883 110.355 19.4883C111.189 19.4883 111.892 19.2181 112.463 18.6779L115.241 20.6229C114.099 22.0586 112.44 22.7763 110.263 22.7763C108.303 22.7763 106.732 22.2014 105.551 21.0513C104.37 19.9013 103.78 18.4464 103.78 16.6865C103.78 14.9421 104.359 13.4833 105.516 12.3102C106.674 11.137 108.148 10.5504 109.939 10.5504C111.668 10.5504 113.096 11.1292 114.222 12.287C115.349 13.4447 115.913 14.8958 115.913 16.6402C115.913 17.1496 115.859 17.6282 115.751 18.0758H107.762ZM107.716 15.413H112.162C111.853 14.3324 111.127 13.7922 109.985 13.7922C108.796 13.7922 108.04 14.3324 107.716 15.413ZM122.049 18.8863H126.379V22.4522H116.909V19.8125L121.007 14.4404H117.14V10.8746H126.147V13.5143L122.049 18.8863ZM135.641 10.8746H139.902L135.942 22.2669C135.325 24.0113 134.452 25.2694 133.325 26.0412C132.199 26.813 130.74 27.1604 128.949 27.0832V23.471C129.767 23.471 130.385 23.3707 130.802 23.17C131.219 22.9694 131.558 22.6065 131.82 22.0817L127.189 10.8746H131.496L133.835 17.5896L135.641 10.8746Z" fill="white"/>
<path fill-rule="evenodd" clip-rule="evenodd" d="M7.96819 12.0589L16.8595 12.0857C18.4922 12.4487 17.3587 14.3133 17.0361 14.9882C16.6891 15.7139 15.8183 17.3288 15.6418 18.0017C16.1391 18.9709 18.7555 22.5144 19.3666 23.6875L20.7407 20.8199C21.2139 19.8307 21.6607 18.8419 22.13 17.8565C23.147 15.7211 24.1961 13.8155 23.287 11.0228C22.6211 8.97685 21.0056 7.38657 18.988 6.70919C17.1333 6.08647 12.8507 6.39184 10.5972 6.34981L4.3125 6.36436C4.59453 6.97685 7.55616 11.2112 7.96819 12.0589Z" fill="#4380FF"/>
<path fill-rule="evenodd" clip-rule="evenodd" d="M12.9586 23.6773L19.3666 23.6878C18.7555 22.5147 16.1391 18.9712 15.6418 18.002C14.3535 18.0431 7.49174 18.1696 6.70012 17.9681C6.17519 17.8345 5.73608 17.2594 5.87871 16.6133C5.96626 16.2158 7.6275 12.9014 7.96815 12.0591C7.55612 11.2115 4.5945 6.97712 4.31246 6.36463L1.55207 12.1948C0.583058 14.3427 -0.582621 16.1389 0.379258 19.0175C1.06123 21.0582 2.59504 22.6399 4.67129 23.3407C6.45629 23.943 10.8018 23.6315 12.9586 23.6773Z" fill="#11DEFF"/>
<path fill-rule="evenodd" clip-rule="evenodd" d="M19.367 23.6879L12.959 23.6774C13.1513 24.0901 16.5332 29.1413 16.7447 29.3125L19.367 23.6879Z" fill="#4373FF"/>
<path fill-rule="evenodd" clip-rule="evenodd" d="M4.3125 6.36426L10.5972 6.3497C10.4411 5.99774 9.96105 5.32626 9.71188 4.95667L6.92416 0.837842C6.6736 1.1296 4.53474 5.7584 4.3125 6.36426Z" fill="#07E9FF"/>
</g>
<defs>
<clipPath id="clip0_1905_901">
<rect width="140" height="28.9655" fill="white" transform="translate(0 0.513672)"/>
</clipPath>
</defs>
</svg>
