<svg width="16" height="16" viewBox="0 0 16 16" fill="none" xmlns="http://www.w3.org/2000/svg">
<path d="M5.00004 3.73334L3.33337 4.66667L4.26671 3L3.33337 1.33334L5.00004 2.26667L6.66671 1.33334L5.73337 3L6.66671 4.66667L5.00004 3.73334ZM13 10.2667L14.6667 9.33334L13.7334 11L14.6667 12.6667L13 11.7333L11.3334 12.6667L12.2667 11L11.3334 9.33334L13 10.2667ZM14.6667 1.33334L13.7334 3L14.6667 4.66667L13 3.73334L11.3334 4.66667L12.2667 3L11.3334 1.33334L13 2.26667L14.6667 1.33334ZM8.89337 8.52L10.52 6.89334L9.10671 5.48L7.48004 7.10667L8.89337 8.52ZM9.58004 4.86L11.14 6.42C11.4 6.66667 11.4 7.1 11.14 7.36L3.36004 15.14C3.10004 15.4 2.66671 15.4 2.42004 15.14L0.860039 13.58C0.600039 13.3333 0.600039 12.9 0.860039 12.64L8.64004 4.86C8.90004 4.6 9.33337 4.6 9.58004 4.86Z" fill="#F8A700"/>
</svg>
