<svg width="20" height="21" viewBox="0 0 20 21" fill="none" xmlns="http://www.w3.org/2000/svg">
<path d="M9.69065 19.5047C9.45839 19.5047 9.22813 19.4441 9.0246 19.3267L6.90442 18.0712C6.58756 17.8939 6.74214 17.8312 6.84656 17.7952C7.26898 17.6475 7.35432 17.614 7.80508 17.3578C7.85244 17.3307 7.91436 17.3404 7.96291 17.3691L9.59189 18.3358C9.65055 18.3677 9.73435 18.3677 9.78856 18.3358L16.1399 14.6695C16.1986 14.6359 16.237 14.5679 16.237 14.498V7.16908C16.237 7.09585 16.199 7.03067 16.1387 6.99429L9.79016 3.33083C9.73149 3.29603 9.65341 3.29603 9.59474 3.33083L3.24704 6.99389C3.18554 7.02868 3.14629 7.09705 3.14629 7.16703V14.4964C3.14629 14.5663 3.18432 14.6331 3.24502 14.6663L4.98448 15.671C5.92888 16.1432 6.50588 15.5868 6.50588 15.0272V7.79378C6.50588 7.69062 6.58676 7.61093 6.69039 7.61093H7.49473C7.5951 7.61093 7.67764 7.69022 7.67764 7.79378V15.0309C7.67764 16.29 6.99102 17.0135 5.79698 17.0135C5.42957 17.0135 5.14026 17.0135 4.33264 16.6161L2.66641 15.656C2.25451 15.4172 2 14.9718 2 14.4968V7.16743C2 6.69039 2.25451 6.24531 2.66601 6.00982L9.0242 2.34193C9.4264 2.11454 9.9605 2.11454 10.3598 2.34193L16.71 6.01144C17.1195 6.24814 17.3756 6.69201 17.3756 7.16908V14.4984C17.3756 14.9738 17.1195 15.4172 16.7096 15.656L10.3594 19.3235C10.1559 19.4412 9.92531 19.5015 9.6902 19.5015" fill="#21A366"/>
<path d="M11.6536 14.4548C8.87465 14.4548 8.29199 13.1791 8.29199 12.1093C8.29199 12.0077 8.37413 11.9264 8.4761 11.9264H9.29667C9.38727 11.9264 9.46375 11.9923 9.47792 12.0817C9.60176 12.9177 9.97078 13.3393 11.6512 13.3393C12.9896 13.3393 13.559 13.0371 13.559 12.327C13.559 11.9182 13.3967 11.6148 11.3173 11.4113C9.57789 11.2397 8.50318 10.8566 8.50318 9.46544C8.50318 8.184 9.58434 7.4209 11.395 7.4209C13.4287 7.4209 14.4365 8.127 14.5636 9.64349C14.5685 9.6961 14.5495 9.74666 14.5142 9.7851C14.4794 9.82155 14.4301 9.84377 14.3791 9.84377H13.5541C13.4683 9.84377 13.3935 9.7835 13.376 9.70056C13.1774 8.82132 12.6971 8.54011 11.3918 8.54011C9.93068 8.54011 9.76074 9.04867 9.76074 9.43025C9.76074 9.89272 9.96107 10.0279 11.9324 10.2889C13.8847 10.5478 14.8117 10.9136 14.8117 12.2857C14.8117 13.6687 13.6573 14.4621 11.6447 14.4621" fill="#21A366"/>
</svg>
