<svg width="188" height="188" viewBox="0 0 188 188" fill="none" xmlns="http://www.w3.org/2000/svg">
<path opacity="0.2" d="M70.5004 127.921L111.625 104.179V131.314L78.9457 150.18C72.3182 154.008 64.6247 155.575 57.0278 154.644C49.4309 153.714 42.3434 150.336 36.836 145.021C31.3287 139.706 27.7008 132.743 26.5006 125.184C25.3004 117.625 26.593 109.881 30.1832 103.121C32.4443 105.441 35.0143 107.437 37.8207 109.055L70.5004 127.921ZM150.18 78.9455L117.5 60.0794L94.0004 73.6507L135.125 97.393V135.125C135.122 138.353 134.674 141.566 133.796 144.672C141.436 144.393 148.778 141.637 154.715 136.821C160.652 132.005 164.862 125.389 166.711 117.972C168.56 110.554 167.948 102.736 164.966 95.6966C161.984 88.6573 156.795 82.7781 150.18 78.9455ZM76.3754 56.6866L109.055 37.8205C111.855 36.1892 114.868 34.9535 118.007 34.1486C113.946 27.6595 107.884 22.6686 100.736 19.9302C93.5872 17.1917 85.7418 16.8547 78.3849 18.9699C71.0281 21.0851 64.5598 25.5377 59.9575 31.6546C55.3553 37.7715 52.8693 45.2203 52.8754 52.8752V90.6074L76.3754 104.179V56.6866Z" fill="#E8E24D"/>
</svg>
