<svg width="16" height="17" viewBox="0 0 16 17" fill="none" xmlns="http://www.w3.org/2000/svg">
<path d="M14.1163 6.94041C13.8806 6.69416 13.6369 6.44041 13.545 6.21729C13.46 6.01291 13.455 5.67416 13.45 5.34604C13.4406 4.73603 13.4306 4.04479 12.95 3.56416C12.4694 3.08354 11.7781 3.07354 11.1681 3.06416C10.84 3.05916 10.5013 3.05416 10.2969 2.96916C10.0744 2.87729 9.82 2.63354 9.57375 2.39791C9.1425 1.98354 8.6525 1.51416 8 1.51416C7.3475 1.51416 6.85812 1.98354 6.42625 2.39791C6.18 2.63354 5.92625 2.87729 5.70312 2.96916C5.5 3.05416 5.16 3.05916 4.83187 3.06416C4.22187 3.07354 3.53062 3.08354 3.05 3.56416C2.56937 4.04479 2.5625 4.73603 2.55 5.34604C2.545 5.67416 2.54 6.01291 2.455 6.21729C2.36312 6.43979 2.11937 6.69416 1.88375 6.94041C1.46937 7.37166 1 7.86166 1 8.51416C1 9.16666 1.46937 9.65603 1.88375 10.0879C2.11937 10.3342 2.36312 10.5879 2.455 10.811C2.54 11.0154 2.545 11.3542 2.55 11.6823C2.55937 12.2923 2.56937 12.9835 3.05 13.4642C3.53062 13.9448 4.22187 13.9548 4.83187 13.9642C5.16 13.9692 5.49875 13.9742 5.70312 14.0592C5.92562 14.151 6.18 14.3948 6.42625 14.6304C6.8575 15.0448 7.3475 15.5142 8 15.5142C8.6525 15.5142 9.14187 15.0448 9.57375 14.6304C9.82 14.3948 10.0737 14.151 10.2969 14.0592C10.5013 13.9742 10.84 13.9692 11.1681 13.9642C11.7781 13.9548 12.4694 13.9448 12.95 13.4642C13.4306 12.9835 13.4406 12.2923 13.45 11.6823C13.455 11.3542 13.46 11.0154 13.545 10.811C13.6369 10.5885 13.8806 10.3342 14.1163 10.0879C14.5306 9.65666 15 9.16666 15 8.51416C15 7.86166 14.5306 7.37228 14.1163 6.94041ZM10.8538 7.36791L7.35375 10.8679C7.30731 10.9144 7.25217 10.9513 7.19147 10.9764C7.13077 11.0016 7.06571 11.0146 7 11.0146C6.93429 11.0146 6.86923 11.0016 6.80853 10.9764C6.74783 10.9513 6.69269 10.9144 6.64625 10.8679L5.14625 9.36791C5.09979 9.32146 5.06294 9.2663 5.0378 9.20561C5.01266 9.14491 4.99972 9.07986 4.99972 9.01416C4.99972 8.94846 5.01266 8.88341 5.0378 8.82271C5.06294 8.76202 5.09979 8.70686 5.14625 8.66041C5.24007 8.56659 5.36732 8.51388 5.5 8.51388C5.5657 8.51388 5.63075 8.52682 5.69145 8.55196C5.75214 8.57711 5.8073 8.61396 5.85375 8.66041L7 9.80729L10.1462 6.66041C10.1927 6.61396 10.2479 6.5771 10.3086 6.55196C10.3692 6.52682 10.4343 6.51388 10.5 6.51388C10.5657 6.51388 10.6308 6.52682 10.6914 6.55196C10.7521 6.5771 10.8073 6.61396 10.8538 6.66041C10.9002 6.70686 10.9371 6.76202 10.9622 6.82271C10.9873 6.88341 11.0003 6.94846 11.0003 7.01416C11.0003 7.07986 10.9873 7.14491 10.9622 7.20561C10.9371 7.2663 10.9002 7.32146 10.8538 7.36791Z" fill="#017CEE"/>
<path d="M10.854 7.3677L7.35403 10.8677C7.30759 10.9142 7.25245 10.9511 7.19175 10.9762C7.13105 11.0014 7.06599 11.0143 7.00028 11.0143C6.93457 11.0143 6.86951 11.0014 6.80881 10.9762C6.74811 10.9511 6.69296 10.9142 6.64653 10.8677L5.14653 9.3677C5.10007 9.32124 5.06322 9.26609 5.03808 9.2054C5.01294 9.1447 5 9.07965 5 9.01395C5 8.94825 5.01294 8.8832 5.03808 8.8225C5.06322 8.7618 5.10007 8.70665 5.14653 8.6602C5.24035 8.56638 5.3676 8.51367 5.50028 8.51367C5.56598 8.51367 5.63103 8.52661 5.69173 8.55175C5.75242 8.57689 5.80757 8.61374 5.85403 8.6602L7.00028 9.80707L10.1465 6.6602C10.193 6.61374 10.2481 6.57689 10.3088 6.55175C10.3695 6.52661 10.4346 6.51367 10.5003 6.51367C10.566 6.51367 10.631 6.52661 10.6917 6.55175C10.7524 6.57689 10.8076 6.61374 10.854 6.6602C10.9005 6.70665 10.9373 6.76181 10.9625 6.8225C10.9876 6.8832 11.0006 6.94825 11.0006 7.01395C11.0006 7.07965 10.9876 7.1447 10.9625 7.2054C10.9373 7.26609 10.9005 7.32125 10.854 7.3677Z" fill="white"/>
</svg>
