<svg width="16" height="17" viewBox="0 0 16 17" fill="none" xmlns="http://www.w3.org/2000/svg">
<path d="M14.6669 11.7583V13.7583C14.6677 13.9439 14.6297 14.1277 14.5553 14.2978C14.4809 14.4679 14.3718 14.6206 14.235 14.7462C14.0982 14.8717 13.9367 14.9672 13.7608 15.0267C13.5849 15.0862 13.3985 15.1083 13.2136 15.0916C11.1622 14.8687 9.19161 14.1677 7.46028 13.0449C5.8495 12.0214 4.48384 10.6557 3.46028 9.04492C2.3336 7.30572 1.63244 5.32558 1.41361 3.26492C1.39695 3.08057 1.41886 2.89476 1.47795 2.71934C1.53703 2.54391 1.63199 2.38271 1.75679 2.246C1.88159 2.10929 2.03348 2.00006 2.20281 1.92527C2.37213 1.85048 2.55517 1.81176 2.74028 1.81159H4.74028C5.06382 1.8084 5.37748 1.92297 5.62279 2.13394C5.8681 2.34491 6.02833 2.63789 6.07361 2.95825C6.15803 3.5983 6.31458 4.22674 6.54028 4.83159C6.62998 5.0702 6.64939 5.32953 6.59622 5.57884C6.54305 5.82815 6.41952 6.057 6.24028 6.23825L5.39361 7.08492C6.34265 8.75395 7.72458 10.1359 9.39361 11.0849L10.2403 10.2383C10.4215 10.059 10.6504 9.93549 10.8997 9.88232C11.149 9.82915 11.4083 9.84856 11.6469 9.93825C12.2518 10.164 12.8802 10.3205 13.5203 10.4049C13.8441 10.4506 14.1399 10.6137 14.3513 10.8633C14.5627 11.1128 14.6751 11.4313 14.6669 11.7583Z" stroke="#017CEE" stroke-width="1.33" stroke-linecap="round" stroke-linejoin="round"/>
</svg>
