<svg width="20" height="21" viewBox="0 0 20 21" fill="none" xmlns="http://www.w3.org/2000/svg">
<path d="M9.99991 12.2669C10.8919 12.2669 11.6151 11.534 11.6151 10.6297C11.6151 9.72567 10.8919 8.99268 9.99991 8.99268C9.10788 8.99268 8.38477 9.72567 8.38477 10.6297C8.38477 11.534 9.10788 12.2669 9.99991 12.2669Z" fill="#00D8FF"/>
<path d="M9.99966 13.9846C14.7861 13.9846 18.6663 12.4829 18.6663 10.6305C18.6663 8.77808 14.7861 7.27637 9.99966 7.27637C5.21319 7.27637 1.33301 8.77808 1.33301 10.6305C1.33301 12.4829 5.21319 13.9846 9.99966 13.9846Z" stroke="#00D8FF" stroke-width="1.5"/>
<path d="M7.13276 12.3069C9.52599 16.5085 12.7491 19.1636 14.3318 18.2374C15.9146 17.3113 15.2575 13.1543 12.8643 8.95283C10.471 4.75121 7.24789 2.09599 5.66519 3.0222C4.08248 3.94841 4.73954 8.1053 7.13276 12.3069Z" stroke="#00D8FF" stroke-width="1.5"/>
<path d="M7.13276 8.95279C4.73954 13.1544 4.08248 17.3113 5.66519 18.2375C7.24789 19.1637 10.471 16.5084 12.8643 12.3069C15.2575 8.10531 15.9146 3.94841 14.3318 3.0222C12.7491 2.09599 9.52599 4.75121 7.13276 8.95279Z" stroke="#00D8FF" stroke-width="1.5"/>
</svg>
